<svg width="14" height="18" viewBox="0 0 14 18" fill="none" xmlns="http://www.w3.org/2000/svg">
<path fill-rule="evenodd" clip-rule="evenodd" d="M2.0633 7.26149L7.40463 1.15907C7.47645 1.07724 7.62451 0.997016 7.7313 0.980946C7.7313 0.980946 12.2222 0.262213 12.878 1.01088C13.5335 1.75942 13.546 2.59494 13.3297 3.08477C13.1389 3.51694 11.4785 7.15293 11.07 8.06352C12.1385 8.82654 13.1111 10.081 13.3297 11.4339C13.7826 14.2329 12.5427 17.9691 6.47315 17.5821C4.28892 17.5821 0.476455 16.8018 0.0500249 13.4573C-0.375776 10.1129 2.0633 7.26149 2.0633 7.26149ZM9.83546 16.3999C10.8886 16.3999 12.8252 14.94 12.7565 12.1434C12.6876 9.34766 10.2184 8.20728 10.2184 8.20728L12.788 2.56287C12.8322 2.46456 12.8556 2.27542 12.8369 2.17012C12.7999 1.96516 12.6701 1.61776 12.559 1.46184C12.4091 1.251 12.0961 1.18125 11.9211 1.45252C11.9211 1.45252 7.03331 8.77925 7.03331 12.2475C7.03343 15.7159 8.7824 16.3999 9.83546 16.3999ZM8.52015 2.62693H7.56276C7.45746 2.62693 7.4236 2.56316 7.48652 2.48449L7.91819 1.9448C7.95945 1.89321 8.05006 1.84482 8.11954 1.83799C8.11954 1.83799 8.47313 1.80187 8.95202 1.76541C9.43091 1.72895 10.1239 1.75757 10.1239 1.75757C10.2637 1.76157 10.3172 1.8555 10.2437 1.96664L9.8503 2.56183C9.81383 2.617 9.72745 2.65981 9.65765 2.657C9.65765 2.657 8.68483 2.62693 8.52015 2.62693Z" fill="#0062FF"/>
<path fill-rule="evenodd" clip-rule="evenodd" d="M2.0633 7.26149L7.40463 1.15907C7.47645 1.07724 7.62451 0.997016 7.7313 0.980946C7.7313 0.980946 12.2222 0.262213 12.878 1.01088C13.5335 1.75942 13.546 2.59494 13.3297 3.08477C13.1389 3.51694 11.4785 7.15293 11.07 8.06352C12.1385 8.82654 13.1111 10.081 13.3297 11.4339C13.7826 14.2329 12.5427 17.9691 6.47315 17.5821C4.28892 17.5821 0.476455 16.8018 0.0500249 13.4573C-0.375776 10.1129 2.0633 7.26149 2.0633 7.26149ZM9.83546 16.3999C10.8886 16.3999 12.8252 14.94 12.7565 12.1434C12.6876 9.34766 10.2184 8.20728 10.2184 8.20728L12.788 2.56287C12.8322 2.46456 12.8556 2.27542 12.8369 2.17012C12.7999 1.96516 12.6701 1.61776 12.559 1.46184C12.4091 1.251 12.0961 1.18125 11.9211 1.45252C11.9211 1.45252 7.03331 8.77925 7.03331 12.2475C7.03343 15.7159 8.7824 16.3999 9.83546 16.3999ZM8.52015 2.62693H7.56276C7.45746 2.62693 7.4236 2.56316 7.48652 2.48449L7.91819 1.9448C7.95945 1.89321 8.05006 1.84482 8.11954 1.83799C8.11954 1.83799 8.47313 1.80187 8.95202 1.76541C9.43091 1.72895 10.1239 1.75757 10.1239 1.75757C10.2637 1.76157 10.3172 1.8555 10.2437 1.96664L9.8503 2.56183C9.81383 2.617 9.72745 2.65981 9.65765 2.657C9.65765 2.657 8.68483 2.62693 8.52015 2.62693Z" fill="url(#paint0_radial_17_168)"/>
<path fill-rule="evenodd" clip-rule="evenodd" d="M2.0633 7.26149L7.40463 1.15907C7.47645 1.07724 7.62451 0.997016 7.7313 0.980946C7.7313 0.980946 12.2222 0.262213 12.878 1.01088C13.5335 1.75942 13.546 2.59494 13.3297 3.08477C13.1389 3.51694 11.4785 7.15293 11.07 8.06352C12.1385 8.82654 13.1111 10.081 13.3297 11.4339C13.7826 14.2329 12.5427 17.9691 6.47315 17.5821C4.28892 17.5821 0.476455 16.8018 0.0500249 13.4573C-0.375776 10.1129 2.0633 7.26149 2.0633 7.26149ZM9.83546 16.3999C10.8886 16.3999 12.8252 14.94 12.7565 12.1434C12.6876 9.34766 10.2184 8.20728 10.2184 8.20728L12.788 2.56287C12.8322 2.46456 12.8556 2.27542 12.8369 2.17012C12.7999 1.96516 12.6701 1.61776 12.559 1.46184C12.4091 1.251 12.0961 1.18125 11.9211 1.45252C11.9211 1.45252 7.03331 8.77925 7.03331 12.2475C7.03343 15.7159 8.7824 16.3999 9.83546 16.3999ZM8.52015 2.62693H7.56276C7.45746 2.62693 7.4236 2.56316 7.48652 2.48449L7.91819 1.9448C7.95945 1.89321 8.05006 1.84482 8.11954 1.83799C8.11954 1.83799 8.47313 1.80187 8.95202 1.76541C9.43091 1.72895 10.1239 1.75757 10.1239 1.75757C10.2637 1.76157 10.3172 1.8555 10.2437 1.96664L9.8503 2.56183C9.81383 2.617 9.72745 2.65981 9.65765 2.657C9.65765 2.657 8.68483 2.62693 8.52015 2.62693Z" fill="url(#paint1_radial_17_168)"/>
<path fill-rule="evenodd" clip-rule="evenodd" d="M2.0633 7.26149L7.40463 1.15907C7.47645 1.07724 7.62451 0.997016 7.7313 0.980946C7.7313 0.980946 12.2222 0.262213 12.878 1.01088C13.5335 1.75942 13.546 2.59494 13.3297 3.08477C13.1389 3.51694 11.4785 7.15293 11.07 8.06352C12.1385 8.82654 13.1111 10.081 13.3297 11.4339C13.7826 14.2329 12.5427 17.9691 6.47315 17.5821C4.28892 17.5821 0.476455 16.8018 0.0500249 13.4573C-0.375776 10.1129 2.0633 7.26149 2.0633 7.26149ZM9.83546 16.3999C10.8886 16.3999 12.8252 14.94 12.7565 12.1434C12.6876 9.34766 10.2184 8.20728 10.2184 8.20728L12.788 2.56287C12.8322 2.46456 12.8556 2.27542 12.8369 2.17012C12.7999 1.96516 12.6701 1.61776 12.559 1.46184C12.4091 1.251 12.0961 1.18125 11.9211 1.45252C11.9211 1.45252 7.03331 8.77925 7.03331 12.2475C7.03343 15.7159 8.7824 16.3999 9.83546 16.3999ZM8.52015 2.62693H7.56276C7.45746 2.62693 7.4236 2.56316 7.48652 2.48449L7.91819 1.9448C7.95945 1.89321 8.05006 1.84482 8.11954 1.83799C8.11954 1.83799 8.47313 1.80187 8.95202 1.76541C9.43091 1.72895 10.1239 1.75757 10.1239 1.75757C10.2637 1.76157 10.3172 1.8555 10.2437 1.96664L9.8503 2.56183C9.81383 2.617 9.72745 2.65981 9.65765 2.657C9.65765 2.657 8.68483 2.62693 8.52015 2.62693Z" fill="url(#paint2_radial_17_168)"/>
<path fill-rule="evenodd" clip-rule="evenodd" d="M2.0633 7.26149L7.40463 1.15907C7.47645 1.07724 7.62451 0.997016 7.7313 0.980946C7.7313 0.980946 12.2222 0.262213 12.878 1.01088C13.5335 1.75942 13.546 2.59494 13.3297 3.08477C13.1389 3.51694 11.4785 7.15293 11.07 8.06352C12.1385 8.82654 13.1111 10.081 13.3297 11.4339C13.7826 14.2329 12.5427 17.9691 6.47315 17.5821C4.28892 17.5821 0.476455 16.8018 0.0500249 13.4573C-0.375776 10.1129 2.0633 7.26149 2.0633 7.26149ZM9.83546 16.3999C10.8886 16.3999 12.8252 14.94 12.7565 12.1434C12.6876 9.34766 10.2184 8.20728 10.2184 8.20728L12.788 2.56287C12.8322 2.46456 12.8556 2.27542 12.8369 2.17012C12.7999 1.96516 12.6701 1.61776 12.559 1.46184C12.4091 1.251 12.0961 1.18125 11.9211 1.45252C11.9211 1.45252 7.03331 8.77925 7.03331 12.2475C7.03343 15.7159 8.7824 16.3999 9.83546 16.3999ZM8.52015 2.62693H7.56276C7.45746 2.62693 7.4236 2.56316 7.48652 2.48449L7.91819 1.9448C7.95945 1.89321 8.05006 1.84482 8.11954 1.83799C8.11954 1.83799 8.47313 1.80187 8.95202 1.76541C9.43091 1.72895 10.1239 1.75757 10.1239 1.75757C10.2637 1.76157 10.3172 1.8555 10.2437 1.96664L9.8503 2.56183C9.81383 2.617 9.72745 2.65981 9.65765 2.657C9.65765 2.657 8.68483 2.62693 8.52015 2.62693Z" fill="url(#paint3_radial_17_168)" fill-opacity="0.8"/>
<path fill-rule="evenodd" clip-rule="evenodd" d="M2.0633 7.26149L7.40463 1.15907C7.47645 1.07724 7.62451 0.997016 7.7313 0.980946C7.7313 0.980946 12.2222 0.262213 12.878 1.01088C13.5335 1.75942 13.546 2.59494 13.3297 3.08477C13.1389 3.51694 11.4785 7.15293 11.07 8.06352C12.1385 8.82654 13.1111 10.081 13.3297 11.4339C13.7826 14.2329 12.5427 17.9691 6.47315 17.5821C4.28892 17.5821 0.476455 16.8018 0.0500249 13.4573C-0.375776 10.1129 2.0633 7.26149 2.0633 7.26149ZM9.83546 16.3999C10.8886 16.3999 12.8252 14.94 12.7565 12.1434C12.6876 9.34766 10.2184 8.20728 10.2184 8.20728L12.788 2.56287C12.8322 2.46456 12.8556 2.27542 12.8369 2.17012C12.7999 1.96516 12.6701 1.61776 12.559 1.46184C12.4091 1.251 12.0961 1.18125 11.9211 1.45252C11.9211 1.45252 7.03331 8.77925 7.03331 12.2475C7.03343 15.7159 8.7824 16.3999 9.83546 16.3999ZM8.52015 2.62693H7.56276C7.45746 2.62693 7.4236 2.56316 7.48652 2.48449L7.91819 1.9448C7.95945 1.89321 8.05006 1.84482 8.11954 1.83799C8.11954 1.83799 8.47313 1.80187 8.95202 1.76541C9.43091 1.72895 10.1239 1.75757 10.1239 1.75757C10.2637 1.76157 10.3172 1.8555 10.2437 1.96664L9.8503 2.56183C9.81383 2.617 9.72745 2.65981 9.65765 2.657C9.65765 2.657 8.68483 2.62693 8.52015 2.62693Z" fill="url(#paint4_radial_17_168)" fill-opacity="0.8"/>
<defs>
<radialGradient id="paint0_radial_17_168" cx="0" cy="0" r="1" gradientTransform="matrix(4.48325 10.3544 -20.9809 20.8482 3.62575 3.18211)" gradientUnits="userSpaceOnUse">
<stop offset="0.122966" stop-color="#FF00FF"/>
<stop offset="0.517761" stop-color="#FF00FF" stop-opacity="0"/>
</radialGradient>
<radialGradient id="paint1_radial_17_168" cx="0" cy="0" r="1" gradientTransform="matrix(0.401786 9.04309 -18.0468 1.84015 8.21758 -0.151084)" gradientUnits="userSpaceOnUse">
<stop stop-color="#FF00FF"/>
<stop offset="0.755637" stop-color="#FF00FF" stop-opacity="0"/>
</radialGradient>
<radialGradient id="paint2_radial_17_168" cx="0" cy="0" r="1" gradientTransform="matrix(-5.26147 0.753592 -0.670921 -10.7502 10.59 11.5006)" gradientUnits="userSpaceOnUse">
<stop offset="0.305763" stop-color="#00F9FF"/>
<stop offset="0.458159" stop-color="#00F9FF" stop-opacity="0"/>
</radialGradient>
<radialGradient id="paint3_radial_17_168" cx="0" cy="0" r="1" gradientTransform="matrix(-7.22474 -1.42511 1.26877 -14.7616 11.3037 15.1892)" gradientUnits="userSpaceOnUse">
<stop offset="0.186401" stop-color="#00F9FF"/>
<stop offset="0.503027" stop-color="#00F9FF" stop-opacity="0"/>
</radialGradient>
<radialGradient id="paint4_radial_17_168" cx="0" cy="0" r="1" gradientTransform="matrix(-9.33672 0.260859 -0.22886 -18.799 10.9535 15.2975)" gradientUnits="userSpaceOnUse">
<stop offset="0.296002" stop-color="#00F9FF"/>
<stop offset="0.782677" stop-color="#00F9FF" stop-opacity="0"/>
</radialGradient>
</defs>
</svg>
