<svg width="16" height="16" viewBox="0 0 16 16" fill="none" xmlns="http://www.w3.org/2000/svg">
<path fill-rule="evenodd" clip-rule="evenodd" d="M3.56432 6.22565L8.64565 0.46175C8.71398 0.384467 8.85483 0.30869 8.95643 0.293511C8.95643 0.293511 13.2287 -0.385351 13.8526 0.321783C14.4762 1.0288 14.4881 1.81797 14.2824 2.28062C14.1008 2.68882 12.5212 6.12311 12.1327 6.98319C13.1491 7.70388 14.0744 8.88873 14.2824 10.1666C14.7132 12.8104 13.5336 16.3393 7.75951 15.9737C5.6816 15.9737 2.05471 15.2367 1.64904 12.0777C1.24396 8.91886 3.56432 6.22565 3.56432 6.22565ZM10.9582 14.8571C11.9601 14.8571 13.8024 13.4782 13.737 10.8367C13.6715 8.19609 11.3224 7.11897 11.3224 7.11897L13.767 1.78768C13.8091 1.69482 13.8313 1.51617 13.8135 1.41672C13.7783 1.22313 13.6548 0.895002 13.5491 0.747728C13.4065 0.548583 13.1088 0.482703 12.9423 0.738928C12.9423 0.738928 8.29241 7.65921 8.29241 10.935C8.29253 14.2111 9.95637 14.8571 10.9582 14.8571ZM9.70688 1.84819H8.79609C8.69592 1.84819 8.6637 1.78795 8.72356 1.71365L9.13422 1.20389C9.17347 1.15516 9.25967 1.10946 9.32576 1.10301C9.32576 1.10301 9.66215 1.06889 10.1177 1.03446C10.5733 1.00002 11.2325 1.02705 11.2325 1.02705C11.3656 1.03083 11.4164 1.11955 11.3465 1.22452L10.9723 1.7867C10.9376 1.8388 10.8554 1.87924 10.789 1.87659C10.789 1.87659 9.86354 1.84819 9.70688 1.84819Z" fill="#A7AAAD"/>
</svg>
