<svg width="16" height="16" viewBox="0 0 16 16" fill="none" xmlns="http://www.w3.org/2000/svg">
<path fill-rule="evenodd" clip-rule="evenodd" d="M3.85276 6.43906L8.64931 0.959028C8.71381 0.885551 8.84677 0.813506 8.94267 0.799075C8.94267 0.799075 12.9755 0.153647 13.5645 0.825955C14.1531 1.49815 14.1643 2.24845 13.9701 2.68832C13.7988 3.07642 12.3077 6.34157 11.9409 7.15929C12.9004 7.84448 13.7738 8.97098 13.9701 10.1859C14.3768 12.6995 13.2633 16.0546 7.81283 15.7071C5.85138 15.7071 2.42775 15.0063 2.04481 12.0029C1.66244 8.99963 3.85276 6.43906 3.85276 6.43906ZM10.8322 14.6455C11.778 14.6455 13.5171 13.3344 13.4553 10.823C13.3935 8.31246 11.1761 7.28839 11.1761 7.28839L13.4836 2.21966C13.5234 2.13137 13.5444 1.96152 13.5275 1.86696C13.4943 1.68291 13.3778 1.37094 13.278 1.23092C13.1434 1.04158 12.8623 0.978949 12.7051 1.22256C12.7051 1.22256 8.31586 7.80202 8.31586 10.9165C8.31598 14.0312 9.88657 14.6455 10.8322 14.6455ZM9.65106 2.27718H8.79132C8.69676 2.27718 8.66635 2.21991 8.72285 2.14927L9.11049 1.66462C9.14755 1.61829 9.22891 1.57484 9.2913 1.56871C9.2913 1.56871 9.60884 1.53627 10.0389 1.50353C10.4689 1.47079 11.0912 1.49649 11.0912 1.49649C11.2168 1.50008 11.2648 1.58443 11.1988 1.68424L10.8455 2.21872C10.8128 2.26826 10.7352 2.30671 10.6725 2.30419C10.6725 2.30419 9.79894 2.27718 9.65106 2.27718Z" fill="#21C445"/>
</svg>
