<svg width="240" height="240" viewBox="0 0 240 240" fill="none" xmlns="http://www.w3.org/2000/svg">
<g clip-path="url(#clip0_4142_88548)">
<path d="M67.859 131.996L240 132L231.492 37.3026C229.596 16.1972 211.449 0.00376892 189.692 0.00323486L56 0L67.859 131.996Z" fill="#80B3FF"/>
<path d="M9.92171 223.481C10.7249 232.828 18.4116 240 27.6267 240L96 239.998L84.6589 108L0 108.003L9.92171 223.481Z" fill="url(#paint0_linear_4142_88548)"/>
<g clip-path="url(#clip1_4142_88548)">
<rect x="136.287" y="54.4258" width="88" height="104" rx="6" transform="rotate(10 136.287 54.4258)" fill="url(#paint1_linear_4142_88548)"/>
<rect x="156.293" y="65.5215" width="32" height="6" rx="3" transform="rotate(10 156.293 65.5215)" fill="#7D91AF"/>
<path d="M200.851 159.078C201.939 159.27 202.665 160.307 202.474 161.395C202.282 162.483 201.245 163.209 200.157 163.017L125.551 149.862C124.463 149.67 123.737 148.633 123.929 147.545C124.12 146.457 125.158 145.731 126.245 145.923L200.851 159.078ZM202.344 150.613C203.432 150.805 204.158 151.842 203.966 152.93C203.774 154.017 202.737 154.744 201.649 154.552L174.075 149.69C172.987 149.498 172.261 148.461 172.452 147.373C172.644 146.285 173.682 145.559 174.769 145.751L202.344 150.613ZM162.952 143.665C164.04 143.857 164.766 144.894 164.574 145.982C164.383 147.07 163.345 147.796 162.257 147.604L126.804 141.353C125.717 141.161 124.99 140.124 125.182 139.036C125.374 137.948 126.411 137.222 127.499 137.414L162.952 143.665Z" fill="url(#paint2_linear_4142_88548)"/>
<rect x="140.368" y="75.2207" width="72" height="56" rx="2.54737" transform="rotate(10 140.368 75.2207)" fill="url(#paint3_linear_4142_88548)"/>
<circle cx="164.566" cy="96.7399" r="9.29111" transform="rotate(10 164.566 96.7399)" fill="white"/>
<path d="M138.501 115.625C145.861 110.074 156.278 111.256 162.207 118.316L168.872 126.253C175.663 134.339 185.039 139.819 195.404 141.777C195.385 141.776 195.367 141.776 195.349 141.775L132.914 130.766C131.662 130.421 130.854 129.174 131.084 127.869L132.474 119.984C133.443 119.374 134.392 118.724 135.313 118.029L138.501 115.625Z" fill="#ACB8CC"/>
<path d="M193.075 110.506C199.469 111.634 203.005 114.865 205.75 119.047L201.992 140.362C201.752 141.721 200.477 142.634 199.121 142.438C174.61 138.116 147.782 133.385 137.181 131.516C137.138 131.507 137.095 131.497 137.053 131.486C167.68 136.382 171.254 106.659 193.075 110.506Z" fill="url(#paint4_linear_4142_88548)"/>
<path d="M193.075 110.506C199.469 111.634 203.005 114.865 205.75 119.047L201.992 140.362C201.752 141.721 200.477 142.634 199.121 142.438C174.61 138.116 147.782 133.385 137.181 131.516C137.138 131.507 137.095 131.497 137.053 131.486C167.68 136.382 171.254 106.659 193.075 110.506Z" fill="url(#paint5_radial_4142_88548)" fill-opacity="0.2"/>
<circle cx="145.925" cy="66.7393" r="4" transform="rotate(10 145.925 66.7393)" fill="#7D91AF"/>
<rect x="125.561" y="47.2344" width="160.447" height="62.6751" transform="rotate(54.7743 125.561 47.2344)" fill="url(#paint6_radial_4142_88548)" fill-opacity="0.7" style="mix-blend-mode:multiply"/>
</g>
<path d="M19.7473 85.6873C19.3637 83.5117 20.8164 81.4371 22.992 81.0535L109.655 65.7724C111.831 65.3888 113.905 66.8415 114.289 69.0171L131.654 167.498L41.0514 183.473C38.8758 183.857 36.8012 182.404 36.4176 180.229L19.7473 85.6873Z" fill="url(#paint7_linear_4142_88548)"/>
<path d="M19.7473 85.6873C19.3637 83.5117 20.8164 81.4371 22.992 81.0535L109.655 65.7724C111.831 65.3888 113.905 66.8415 114.289 69.0171L131.654 167.498L41.0514 183.473C38.8758 183.857 36.8012 182.404 36.4176 180.229L19.7473 85.6873Z" fill="url(#paint8_radial_4142_88548)" fill-opacity="0.3" style="mix-blend-mode:multiply"/>
<path d="M19.7337 85.6092C19.35 83.4336 20.8027 81.3589 22.9783 80.9753L109.644 65.6938C111.82 65.3102 113.894 66.7628 114.278 68.9384L118.446 92.5738L23.9012 109.245L19.7337 85.6092Z" fill="url(#paint9_linear_4142_88548)"/>
<circle cx="100.471" cy="81.0609" r="7" transform="rotate(-10 100.471 81.0609)" fill="url(#paint10_radial_4142_88548)"/>
<path d="M95.8398 56.4986C99.5366 55.8468 103.256 59.2879 104.719 66.5628L99.7055 67.4468C98.8977 63.3314 97.8393 62.0718 96.8532 62.2457C95.8143 62.4288 95.6072 66.1796 96.3908 70.6232C97.1743 75.0667 98.6517 78.5205 99.6906 78.3373C99.7421 78.3282 99.793 78.3262 99.8467 78.3167C101.372 78.1311 102.794 79.1722 103.064 80.7064C103.335 82.2405 102.355 83.7046 100.858 84.0519L100.858 84.0531C100.807 84.0644 100.756 84.0752 100.704 84.0843C100.7 84.0849 100.696 84.0852 100.692 84.0858C96.886 84.744 92.7162 79.1175 91.3744 71.5077C90.0312 63.8901 92.0305 57.1703 95.8398 56.4986Z" fill="url(#paint11_radial_4142_88548)"/>
<circle cx="69.0731" cy="86.4223" r="7" transform="rotate(-10 69.0731 86.4223)" fill="url(#paint12_radial_4142_88548)"/>
<path d="M64.3262 62.0553C68.023 61.4034 71.742 64.8445 73.2053 72.1195L68.1919 73.0035C67.384 68.888 66.3256 67.6284 65.3395 67.8023C64.3006 67.9855 64.0936 71.7362 64.8771 76.1798C65.6606 80.6234 67.138 84.0771 68.1769 83.8939C68.2284 83.8848 68.2794 83.8828 68.333 83.8733C69.8585 83.6877 71.2803 84.7289 71.5508 86.263C71.8213 87.7972 70.8413 89.2612 69.3443 89.6086L69.3445 89.6097C69.2934 89.621 69.242 89.6318 69.1903 89.6409C69.1866 89.6416 69.1822 89.6418 69.1785 89.6424C65.3723 90.3006 61.2026 84.6741 59.8608 77.0643C58.5176 69.4467 60.5168 62.727 64.3262 62.0553Z" fill="url(#paint13_radial_4142_88548)"/>
<circle cx="37.5589" cy="91.9789" r="7" transform="rotate(-10 37.5589 91.9789)" fill="url(#paint14_radial_4142_88548)"/>
<path d="M32.812 67.6119C36.5088 66.9601 40.2279 70.4012 41.6911 77.6761L36.6777 78.5601C35.8698 74.4446 34.8114 73.1851 33.8254 73.3589C32.7864 73.5421 32.5794 77.2929 33.3629 81.7364C34.1464 86.18 35.6238 89.6338 36.6627 89.4506C36.7142 89.4415 36.7652 89.4394 36.8189 89.43C38.3444 89.2443 39.7661 90.2855 40.0366 91.8197C40.3071 93.3538 39.3271 94.8179 37.8301 95.1652L37.8303 95.1663C37.7792 95.1777 37.7279 95.1885 37.6761 95.1976C37.6724 95.1982 37.668 95.1984 37.6644 95.1991C33.8581 95.8573 29.6884 90.2308 28.3466 82.621C27.0034 75.0034 29.0026 68.2836 32.812 67.6119Z" fill="url(#paint15_radial_4142_88548)"/>
<g style="mix-blend-mode:multiply">
<path d="M72.0459 112.083C72.2186 111.013 73.644 110.762 74.1721 111.708L81.9541 125.651C82.187 126.068 82.6551 126.296 83.1275 126.223L98.9056 123.771C99.9763 123.605 100.656 124.883 99.9192 125.678L89.0636 137.387C88.7386 137.738 88.6661 138.254 88.8819 138.68L96.0893 152.928C96.5784 153.895 95.573 154.936 94.5896 154.481L80.0985 147.776C79.6647 147.575 79.1518 147.665 78.8128 148.002L67.4891 159.26C66.7207 160.024 65.4197 159.389 65.5486 158.313L67.4483 142.459C67.5051 141.985 67.2606 141.525 66.8353 141.307L52.6295 134.016C51.6655 133.521 51.8669 132.088 52.9299 131.878L68.5951 128.786C69.064 128.693 69.4258 128.318 69.502 127.846L72.0459 112.083Z" fill="url(#paint16_radial_4142_88548)"/>
</g>
<rect x="105.619" y="148.879" width="48" height="48" rx="24" fill="url(#paint17_radial_4142_88548)"/>
<path d="M132.318 160.076C132.594 160.076 132.818 160.3 132.818 160.576V169.675H141.919C142.195 169.675 142.419 169.899 142.419 170.175V175.575C142.419 175.851 142.195 176.075 141.919 176.075H132.818V185.177C132.818 185.453 132.594 185.677 132.318 185.677H126.919C126.643 185.677 126.419 185.453 126.419 185.177V176.075H117.318C117.043 176.075 116.819 175.851 116.818 175.575V170.175C116.818 169.899 117.042 169.675 117.318 169.675H126.419V160.576C126.419 160.3 126.643 160.076 126.919 160.076H132.318Z" fill="white"/>
</g>
<defs>
<linearGradient id="paint0_linear_4142_88548" x1="66.0842" y1="133.951" x2="15.6843" y2="254.571" gradientUnits="userSpaceOnUse">
<stop stop-color="#00CDFF"/>
<stop offset="1" stop-color="#35FAFF"/>
</linearGradient>
<linearGradient id="paint1_linear_4142_88548" x1="177.232" y1="127.902" x2="236.619" y2="-8.96879" gradientUnits="userSpaceOnUse">
<stop offset="0.283654" stop-color="white"/>
<stop offset="1" stop-color="#E1E8F3"/>
</linearGradient>
<linearGradient id="paint2_linear_4142_88548" x1="125.482" y1="141.043" x2="194.811" y2="153.268" gradientUnits="userSpaceOnUse">
<stop stop-color="#7D91AF"/>
<stop offset="1" stop-color="#E1E8F3"/>
</linearGradient>
<linearGradient id="paint3_linear_4142_88548" x1="148.845" y1="63.33" x2="154.741" y2="125.057" gradientUnits="userSpaceOnUse">
<stop stop-color="#80B3FF"/>
<stop offset="1" stop-color="#E0F6FF"/>
</linearGradient>
<linearGradient id="paint4_linear_4142_88548" x1="174.579" y1="107.245" x2="201.368" y2="150.354" gradientUnits="userSpaceOnUse">
<stop stop-color="#7D91AF"/>
<stop offset="1" stop-color="#3B4556"/>
</linearGradient>
<radialGradient id="paint5_radial_4142_88548" cx="0" cy="0" r="1" gradientTransform="matrix(9.64434 28.0283 -60.3955 20.803 179.691 104.826)" gradientUnits="userSpaceOnUse">
<stop stop-color="#3478FF"/>
<stop offset="1" stop-color="#3478FF" stop-opacity="0"/>
</radialGradient>
<radialGradient id="paint6_radial_4142_88548" cx="0" cy="0" r="1" gradientTransform="matrix(17.1738 -59.4324 162.431 19.8701 193.193 112.935)" gradientUnits="userSpaceOnUse">
<stop stop-color="#7D91AF"/>
<stop offset="0.728195" stop-color="#F8FCFF"/>
</radialGradient>
<linearGradient id="paint7_linear_4142_88548" x1="22.7835" y1="100.074" x2="80.7899" y2="166.448" gradientUnits="userSpaceOnUse">
<stop stop-color="white"/>
<stop offset="1" stop-color="#F0F5FD"/>
</linearGradient>
<radialGradient id="paint8_radial_4142_88548" cx="0" cy="0" r="1" gradientUnits="userSpaceOnUse" gradientTransform="translate(92.9325 204.224) rotate(-113.133) scale(92.4714 155.815)">
<stop stop-color="#7D91AF"/>
<stop offset="1" stop-color="white" stop-opacity="0"/>
</radialGradient>
<linearGradient id="paint9_linear_4142_88548" x1="27.3904" y1="80.1974" x2="168.836" y2="92.487" gradientUnits="userSpaceOnUse">
<stop stop-color="#F0F5FD"/>
<stop offset="1" stop-color="#ACB8CC"/>
</linearGradient>
<radialGradient id="paint10_radial_4142_88548" cx="0" cy="0" r="1" gradientTransform="matrix(18.4983 9.03872 -10.4716 18.9703 92.5962 79.0222)" gradientUnits="userSpaceOnUse">
<stop stop-color="#F0F5FD"/>
<stop offset="1" stop-color="#7D91AF"/>
</radialGradient>
<radialGradient id="paint11_radial_4142_88548" cx="0" cy="0" r="1" gradientTransform="matrix(14.4013 21.1724 -9.29281 14.504 90.1236 57.5066)" gradientUnits="userSpaceOnUse">
<stop stop-color="#E1E8F3"/>
<stop offset="1" stop-color="#7D91AF"/>
</radialGradient>
<radialGradient id="paint12_radial_4142_88548" cx="0" cy="0" r="1" gradientTransform="matrix(18.4983 9.03872 -10.4716 18.9703 61.1983 84.3835)" gradientUnits="userSpaceOnUse">
<stop stop-color="#F0F5FD"/>
<stop offset="1" stop-color="#7D91AF"/>
</radialGradient>
<radialGradient id="paint13_radial_4142_88548" cx="0" cy="0" r="1" gradientTransform="matrix(14.4013 21.1724 -9.29281 14.504 58.61 63.0632)" gradientUnits="userSpaceOnUse">
<stop stop-color="#E1E8F3"/>
<stop offset="1" stop-color="#7D91AF"/>
</radialGradient>
<radialGradient id="paint14_radial_4142_88548" cx="0" cy="0" r="1" gradientTransform="matrix(18.4983 9.03872 -10.4716 18.9703 29.6841 89.9402)" gradientUnits="userSpaceOnUse">
<stop stop-color="#F0F5FD"/>
<stop offset="1" stop-color="#7D91AF"/>
</radialGradient>
<radialGradient id="paint15_radial_4142_88548" cx="0" cy="0" r="1" gradientTransform="matrix(14.4013 21.1724 -9.29281 14.504 27.0958 68.6198)" gradientUnits="userSpaceOnUse">
<stop stop-color="#E1E8F3"/>
<stop offset="1" stop-color="#7D91AF"/>
</radialGradient>
<radialGradient id="paint16_radial_4142_88548" cx="0" cy="0" r="1" gradientUnits="userSpaceOnUse" gradientTransform="translate(42.2244 124.389) rotate(24.1145) scale(76.8089)">
<stop stop-color="#E0F6FF"/>
<stop offset="1" stop-color="#80B3FF"/>
</radialGradient>
<radialGradient id="paint17_radial_4142_88548" cx="0" cy="0" r="1" gradientUnits="userSpaceOnUse" gradientTransform="translate(110.584 152.269) rotate(50.9315) scale(32.8369 42.6709)">
<stop stop-color="#80B3FF"/>
<stop offset="1" stop-color="#3478FF"/>
</radialGradient>
<clipPath id="clip0_4142_88548">
<rect width="240" height="240" fill="white"/>
</clipPath>
<clipPath id="clip1_4142_88548">
<rect x="136.287" y="54.4258" width="88" height="104" rx="6" transform="rotate(10 136.287 54.4258)" fill="white"/>
</clipPath>
</defs>
</svg>
