<svg width="240" height="240" viewBox="0 0 240 240" fill="none" xmlns="http://www.w3.org/2000/svg">
<g clip-path="url(#clip0_4142_89067)">
<path d="M67.859 108.004L240 108L231.492 202.697C229.596 223.803 211.449 239.996 189.692 239.997L56 240L67.859 108.004Z" fill="url(#paint0_linear_4142_89067)"/>
<path d="M9.92171 16.5195C10.7249 7.17169 18.4116 -0.000336182 27.6267 1.18189e-08L96 0.00249446L84.6589 132L0 131.997L9.92171 16.5195Z" fill="#00CDFF"/>
<rect x="15.668" y="50.3242" width="208" height="140" rx="8" fill="url(#paint1_linear_4142_89067)"/>
<circle cx="36" cy="70" r="8" fill="#7D91AF"/>
<rect x="56" y="66" width="40" height="8" rx="4" fill="#7D91AF"/>
<rect x="28" y="95.4453" width="64" height="6" rx="3" fill="#E1E8F3"/>
<rect x="100" y="95.4453" width="32" height="6" rx="3" fill="#E1E8F3"/>
<rect x="28" y="109.445" width="40" height="6" rx="3" fill="#E1E8F3"/>
<rect x="140" y="95.4453" width="56" height="6" rx="3" fill="#E1E8F3"/>
<rect x="76" y="109.445" width="72" height="6" rx="3" fill="#E1E8F3"/>
<g style="mix-blend-mode:multiply">
<rect x="28" y="132" width="163.594" height="48" rx="6" fill="url(#paint2_radial_4142_89067)"/>
</g>
<rect x="80.6475" y="139.676" width="97" height="32" rx="6" fill="url(#paint3_linear_4142_89067)"/>
<rect x="84.6475" y="143.676" width="20" height="24" rx="2" fill="#313B4A"/>
<rect x="84.6475" y="143.676" width="20" height="24" rx="2" fill="url(#paint4_linear_4142_89067)"/>
<rect x="107.647" y="143.676" width="20" height="24" rx="2" fill="#313B4A"/>
<rect x="107.647" y="143.676" width="20" height="24" rx="2" fill="url(#paint5_linear_4142_89067)"/>
<rect x="130.647" y="143.676" width="20" height="24" rx="2" fill="#313B4A"/>
<rect x="130.647" y="143.676" width="20" height="24" rx="2" fill="url(#paint6_linear_4142_89067)"/>
<rect x="153.647" y="143.676" width="20" height="24" rx="2" fill="#313B4A"/>
<rect x="153.647" y="143.676" width="20" height="24" rx="2" fill="url(#paint7_linear_4142_89067)"/>
<path d="M112.581 162.647V160.219L117.675 155.76C118.056 155.415 118.381 155.099 118.65 154.813C118.918 154.522 119.122 154.231 119.263 153.94C119.404 153.644 119.475 153.324 119.475 152.979C119.475 152.592 119.391 152.263 119.222 151.99C119.054 151.713 118.822 151.499 118.527 151.349C118.231 151.199 117.893 151.124 117.511 151.124C117.125 151.124 116.786 151.204 116.495 151.363C116.204 151.517 115.977 151.742 115.813 152.038C115.654 152.333 115.575 152.692 115.575 153.115H112.377C112.377 152.165 112.591 151.344 113.018 150.654C113.445 149.963 114.045 149.431 114.818 149.058C115.595 148.681 116.497 148.492 117.525 148.492C118.584 148.492 119.504 148.669 120.286 149.024C121.068 149.379 121.672 149.874 122.1 150.51C122.531 151.142 122.747 151.876 122.747 152.713C122.747 153.244 122.641 153.772 122.427 154.294C122.213 154.817 121.829 155.394 121.275 156.026C120.725 156.658 119.943 157.415 118.929 158.297L117.259 159.838V159.926H122.918V162.647H112.581Z" fill="#F0F5FD"/>
<path d="M163.647 162.765C162.561 162.765 161.591 162.593 160.736 162.247C159.886 161.897 159.218 161.424 158.732 160.829C158.25 160.229 158.009 159.552 158.009 158.797C158.009 158.22 158.147 157.69 158.425 157.209C158.702 156.727 159.077 156.327 159.55 156.009C160.027 155.686 160.559 155.479 161.145 155.388V155.279C160.377 155.138 159.747 154.781 159.257 154.209C158.77 153.636 158.527 152.965 158.527 152.197C158.527 151.47 158.747 150.822 159.188 150.254C159.634 149.686 160.241 149.238 161.009 148.911C161.782 148.584 162.661 148.42 163.647 148.42C164.634 148.42 165.511 148.584 166.279 148.911C167.052 149.238 167.659 149.686 168.1 150.254C168.545 150.822 168.768 151.47 168.768 152.197C168.768 152.97 168.52 153.643 168.025 154.215C167.534 154.784 166.909 155.138 166.15 155.279V155.388C166.732 155.479 167.259 155.686 167.732 156.009C168.209 156.327 168.586 156.727 168.863 157.209C169.145 157.69 169.286 158.22 169.286 158.797C169.286 159.552 169.043 160.229 168.557 160.829C168.07 161.424 167.402 161.897 166.552 162.247C165.707 162.593 164.738 162.765 163.647 162.765ZM163.647 160.372C164.061 160.372 164.425 160.295 164.738 160.14C165.052 159.981 165.297 159.761 165.475 159.479C165.657 159.197 165.747 158.879 165.747 158.524C165.747 158.161 165.657 157.838 165.475 157.556C165.293 157.274 165.043 157.054 164.725 156.895C164.411 156.731 164.052 156.649 163.647 156.649C163.247 156.649 162.888 156.731 162.57 156.895C162.252 157.054 162.002 157.274 161.82 157.556C161.638 157.838 161.547 158.161 161.547 158.524C161.547 158.879 161.636 159.197 161.813 159.479C161.995 159.756 162.243 159.974 162.557 160.134C162.875 160.293 163.238 160.372 163.647 160.372ZM163.647 154.27C164.002 154.27 164.316 154.197 164.588 154.052C164.866 153.906 165.082 153.704 165.236 153.445C165.395 153.186 165.475 152.893 165.475 152.565C165.475 152.238 165.395 151.949 165.236 151.699C165.082 151.449 164.868 151.254 164.595 151.113C164.322 150.968 164.007 150.895 163.647 150.895C163.293 150.895 162.977 150.968 162.7 151.113C162.422 151.254 162.207 151.449 162.052 151.699C161.897 151.949 161.82 152.238 161.82 152.565C161.82 152.893 161.897 153.186 162.052 153.445C162.211 153.699 162.429 153.902 162.707 154.052C162.984 154.197 163.297 154.27 163.647 154.27Z" fill="#F0F5FD"/>
<path d="M97.9316 167.678H94.5635V159.682H94.4824L91.3594 161.591V158.672L94.8027 156.531H97.9316V167.678ZM92.2197 143.676C92.242 144.5 92.3369 145.198 92.5068 145.77C92.7114 146.442 92.998 146.945 93.3662 147.276C93.7343 147.603 94.159 147.768 94.6406 147.768C95.3679 147.768 95.9572 147.397 96.4072 146.656C96.8123 145.985 97.0316 144.991 97.0684 143.676H100.536C100.494 145.02 100.26 146.184 99.8301 147.167C99.3528 148.258 98.6728 149.093 97.791 149.67C96.9138 150.243 95.8633 150.528 94.6406 150.528C93.4227 150.528 92.3729 150.24 91.4912 149.663C90.6094 149.081 89.9294 148.247 89.4521 147.16C89.0223 146.178 88.7899 145.016 88.751 143.676H92.2197Z" fill="#F0F5FD"/>
<path d="M145.182 160.678H138.997L138.677 163.971H138.759C138.991 163.584 139.363 163.267 139.877 163.017C140.395 162.762 140.984 162.635 141.643 162.635C142.479 162.635 143.224 162.83 143.879 163.221C144.538 163.607 145.056 164.144 145.434 164.83C145.815 165.516 146.006 166.302 146.006 167.188C146.006 167.354 145.997 167.517 145.983 167.676H142.729C142.746 167.55 142.755 167.419 142.754 167.284C142.758 166.834 142.666 166.441 142.475 166.104C142.288 165.768 142.029 165.507 141.697 165.32C141.37 165.129 140.993 165.034 140.565 165.034C140.161 165.03 139.777 165.118 139.413 165.3C139.054 165.482 138.781 165.729 138.595 166.043L135.615 165.484L136.223 157.957H145.182V160.678ZM138.15 146.869V146.979H141.656V143.676H144.857V146.979H146.552V149.638H144.857V151.956H141.587V149.638H134.749V147.006L136.893 143.676H140.194L138.15 146.869Z" fill="#F0F5FD"/>
<g style="mix-blend-mode:multiply">
<rect x="84.6475" y="143.676" width="20" height="24" rx="2" fill="url(#paint8_linear_4142_89067)"/>
</g>
<g style="mix-blend-mode:multiply">
<rect x="130.647" y="143.676" width="20" height="24" rx="2" fill="url(#paint9_linear_4142_89067)"/>
</g>
<g style="mix-blend-mode:multiply">
<rect x="153.647" y="143.676" width="20" height="24" rx="2" fill="url(#paint10_linear_4142_89067)"/>
</g>
<g style="mix-blend-mode:multiply">
<rect x="107.647" y="143.676" width="20" height="24" rx="2" fill="url(#paint11_linear_4142_89067)"/>
</g>
<path d="M54.8988 140.311C57.0065 140.566 58.5929 142.366 58.5929 144.503V147.822C58.5931 149.434 59.8918 150.741 61.4933 150.741H63.8751C66.316 150.741 68.2949 152.733 68.2949 155.19C68.2949 156.775 68.085 158.352 67.6702 159.881L66.9453 162.549C66.0235 165.945 62.9585 168.301 59.4612 168.301H50.2176C48.7999 168.301 47.4231 167.822 46.3087 166.94L46.3045 153.373L47.6567 152.071L51.4679 147.914C52.8492 146.408 53.5421 144.388 53.3803 142.345L53.3395 141.82C53.2696 140.934 54.0223 140.205 54.8988 140.311Z" fill="#3478FF"/>
<path d="M54.8988 140.311C57.0065 140.566 58.5929 142.366 58.5929 144.503V147.822C58.5931 149.434 59.8918 150.741 61.4933 150.741H63.8751C66.316 150.741 68.2949 152.733 68.2949 155.19C68.2949 156.775 68.085 158.352 67.6702 159.881L66.9453 162.549C66.0235 165.945 62.9585 168.301 59.4612 168.301H50.2176C48.7999 168.301 47.4231 167.822 46.3087 166.94L46.3045 153.373L47.6567 152.071L51.4679 147.914C52.8492 146.408 53.5421 144.388 53.3803 142.345L53.3395 141.82C53.2696 140.934 54.0223 140.205 54.8988 140.311Z" fill="url(#paint12_radial_4142_89067)"/>
<path d="M42.6664 166.946H41.0333C40.0733 166.946 39.295 166.162 39.2949 165.196V155.119C39.2951 154.153 40.0734 153.369 41.0333 153.369H42.6664V166.946Z" fill="#3478FF"/>
<path d="M42.6664 166.946H41.0333C40.0733 166.946 39.295 166.162 39.2949 165.196V155.119C39.2951 154.153 40.0734 153.369 41.0333 153.369H42.6664V166.946Z" fill="url(#paint13_radial_4142_89067)"/>
</g>
<defs>
<linearGradient id="paint0_linear_4142_89067" x1="148" y1="240" x2="148" y2="108" gradientUnits="userSpaceOnUse">
<stop stop-color="#35FAFF"/>
<stop offset="1" stop-color="#00CDFF"/>
</linearGradient>
<linearGradient id="paint1_linear_4142_89067" x1="187.798" y1="13.1367" x2="73.1662" y2="249.037" gradientUnits="userSpaceOnUse">
<stop stop-color="#E1E8F3"/>
<stop offset="0.264423" stop-color="white"/>
<stop offset="0.724224" stop-color="white"/>
<stop offset="1" stop-color="#E1E8F3"/>
</linearGradient>
<radialGradient id="paint2_radial_4142_89067" cx="0" cy="0" r="1" gradientTransform="matrix(197.116 79.6689 -53.1413 113.506 -27.6657 100.331)" gradientUnits="userSpaceOnUse">
<stop stop-color="#7D91AF"/>
<stop offset="1" stop-color="white" stop-opacity="0"/>
</radialGradient>
<linearGradient id="paint3_linear_4142_89067" x1="83.4451" y1="139.676" x2="190.289" y2="177.97" gradientUnits="userSpaceOnUse">
<stop stop-color="#7D91AF"/>
<stop offset="1" stop-color="#F0F5FD"/>
</linearGradient>
<linearGradient id="paint4_linear_4142_89067" x1="94.6475" y1="143.676" x2="94.6475" y2="167.676" gradientUnits="userSpaceOnUse">
<stop stop-color="#313B4A"/>
<stop offset="0.5" stop-color="#7D91AF"/>
<stop offset="1" stop-color="#313B4A"/>
</linearGradient>
<linearGradient id="paint5_linear_4142_89067" x1="117.647" y1="143.676" x2="117.647" y2="167.676" gradientUnits="userSpaceOnUse">
<stop stop-color="#313B4A"/>
<stop offset="0.5" stop-color="#7D91AF"/>
<stop offset="1" stop-color="#313B4A"/>
</linearGradient>
<linearGradient id="paint6_linear_4142_89067" x1="140.647" y1="143.676" x2="140.647" y2="167.676" gradientUnits="userSpaceOnUse">
<stop stop-color="#313B4A"/>
<stop offset="0.5" stop-color="#7D91AF"/>
<stop offset="1" stop-color="#313B4A"/>
</linearGradient>
<linearGradient id="paint7_linear_4142_89067" x1="163.647" y1="143.676" x2="163.647" y2="167.676" gradientUnits="userSpaceOnUse">
<stop stop-color="#313B4A"/>
<stop offset="0.5" stop-color="#7D91AF"/>
<stop offset="1" stop-color="#313B4A"/>
</linearGradient>
<linearGradient id="paint8_linear_4142_89067" x1="94.6475" y1="143.676" x2="94.6475" y2="167.676" gradientUnits="userSpaceOnUse">
<stop stop-color="#313B4A"/>
<stop offset="0.5" stop-color="#ECFDFF" stop-opacity="0"/>
<stop offset="1" stop-color="#313B4A"/>
</linearGradient>
<linearGradient id="paint9_linear_4142_89067" x1="140.647" y1="143.676" x2="140.647" y2="167.676" gradientUnits="userSpaceOnUse">
<stop stop-color="#313B4A"/>
<stop offset="0.5" stop-color="#ECFDFF" stop-opacity="0"/>
<stop offset="1" stop-color="#313B4A"/>
</linearGradient>
<linearGradient id="paint10_linear_4142_89067" x1="163.647" y1="143.676" x2="163.647" y2="167.676" gradientUnits="userSpaceOnUse">
<stop stop-color="#313B4A"/>
<stop offset="0.5" stop-color="#ECFDFF" stop-opacity="0"/>
<stop offset="1" stop-color="#313B4A"/>
</linearGradient>
<linearGradient id="paint11_linear_4142_89067" x1="117.647" y1="143.676" x2="117.647" y2="167.676" gradientUnits="userSpaceOnUse">
<stop stop-color="#313B4A"/>
<stop offset="0.5" stop-color="#ECFDFF" stop-opacity="0"/>
<stop offset="1" stop-color="#313B4A"/>
</linearGradient>
<radialGradient id="paint12_radial_4142_89067" cx="0" cy="0" r="1" gradientTransform="matrix(12.5035 14.8717 -20.0157 15.6877 42.2947 142.278)" gradientUnits="userSpaceOnUse">
<stop stop-color="#80B3FF"/>
<stop offset="1" stop-color="#3478FF"/>
</radialGradient>
<radialGradient id="paint13_radial_4142_89067" cx="0" cy="0" r="1" gradientTransform="matrix(12.5035 14.8717 -20.0157 15.6877 42.2947 142.278)" gradientUnits="userSpaceOnUse">
<stop stop-color="#80B3FF"/>
<stop offset="1" stop-color="#3478FF"/>
</radialGradient>
<clipPath id="clip0_4142_89067">
<rect width="240" height="240" fill="white"/>
</clipPath>
</defs>
</svg>
