<svg width="240" height="240" viewBox="0 0 240 240" fill="none" xmlns="http://www.w3.org/2000/svg">
<g clip-path="url(#clip0_4142_88233)">
<path d="M67.859 108.004L240 108L231.492 202.697C229.596 223.803 211.449 239.996 189.692 239.997L56 240L67.859 108.004Z" fill="url(#paint0_linear_4142_88233)"/>
<path d="M10.2 27.1659C11.0032 17.8182 18.6899 10.6461 27.9051 10.6465L96.2783 10.649L84.9372 142.646L0.27832 142.643L10.2 27.1659Z" fill="#007CCC"/>
<g clip-path="url(#clip1_4142_88233)">
<rect x="26.4004" y="19.8828" width="187" height="122.117" rx="8" fill="url(#paint1_radial_4142_88233)"/>
<path d="M26.4004 27.8828C26.4004 23.4645 29.9821 19.8828 34.4004 19.8828H205.4C209.819 19.8828 213.4 23.4645 213.4 27.8828V33.8828H26.4004V27.8828Z" fill="url(#paint2_linear_4142_88233)"/>
<circle cx="36.416" cy="27.3828" r="3" fill="#ACB8CC"/>
<circle cx="48.416" cy="27.3828" r="3" fill="#ACB8CC"/>
<circle cx="60.416" cy="27.3828" r="3" fill="#ACB8CC"/>
</g>
<g clip-path="url(#clip2_4142_88233)">
<rect x="19.2002" y="58.7617" width="201.6" height="21.6" rx="10.8" fill="url(#paint3_radial_4142_88233)"/>
<rect x="26.4004" y="67.7617" width="36" height="4" rx="2" fill="#7D91AF"/>
<rect x="70.4004" y="67.7617" width="24" height="4" rx="2" fill="#7D91AF"/>
<path d="M205.115 62.9785C208.098 62.9786 210.515 65.3966 210.515 68.3789C210.515 69.3241 210.271 70.2117 209.844 70.9844L213.204 74.3447C213.732 74.8719 213.731 75.7267 213.204 76.2539C212.677 76.7811 211.822 76.7811 211.295 76.2539L207.99 72.9482C207.157 73.4729 206.172 73.7783 205.115 73.7783C202.133 73.7782 199.715 71.361 199.715 68.3789C199.715 65.3966 202.133 62.9786 205.115 62.9785ZM205.115 65.6787C203.624 65.6788 202.415 66.8878 202.415 68.3789C202.415 69.8698 203.625 71.078 205.115 71.0781C206.606 71.078 207.815 69.8698 207.816 68.3789C207.816 66.8878 206.607 65.6788 205.115 65.6787Z" fill="#ACB8CC"/>
</g>
<g style="mix-blend-mode:darken" opacity="0.1">
<rect x="13.1992" y="87.6641" width="212" height="76" rx="12" fill="url(#paint4_linear_4142_88233)"/>
</g>
<g style="mix-blend-mode:darken" opacity="0.25">
<rect x="16.1992" y="89.9609" width="206" height="70" rx="9" fill="url(#paint5_linear_4142_88233)"/>
</g>
<rect x="19.1992" y="92.9609" width="200" height="64" rx="8" fill="url(#paint6_radial_4142_88233)"/>
<rect x="19.1992" y="92.9609" width="200" height="64" rx="8" fill="url(#paint7_radial_4142_88233)" fill-opacity="0.5"/>
<rect x="19.1992" y="92.9609" width="200" height="64" rx="8" fill="url(#paint8_radial_4142_88233)" fill-opacity="0.5"/>
<rect x="29.5537" y="115.961" width="48" height="6" rx="3" fill="#3478FF"/>
<rect x="85.5537" y="115.961" width="24" height="6" rx="3" fill="#3478FF"/>
<g style="mix-blend-mode:multiply">
<rect x="123.954" y="129.961" width="79.2" height="4" rx="2" fill="#E1E8F3"/>
</g>
<g style="mix-blend-mode:multiply">
<rect x="29.5537" y="129.961" width="86.4" height="4" rx="2" fill="#E1E8F3"/>
</g>
<g style="mix-blend-mode:multiply">
<rect x="29.5537" y="103.961" width="40" height="4" rx="2" fill="#E1E8F3"/>
</g>
<g style="mix-blend-mode:multiply">
<rect x="29.5537" y="141.961" width="40" height="4" rx="2" fill="#E1E8F3"/>
</g>
<g style="mix-blend-mode:multiply">
<rect x="77.5537" y="141.961" width="72" height="4" rx="2" fill="#E1E8F3"/>
</g>
<g style="mix-blend-mode:multiply">
<rect x="157.554" y="141.961" width="48" height="4" rx="2" fill="#E1E8F3"/>
</g>
<path d="M209.136 113.424C209.83 117.359 213.486 120.026 217.405 119.538L217.786 119.481L217.972 120.533L217.971 120.534C213.911 121.249 211.199 125.12 211.913 129.18L210.864 129.365C210.146 125.306 206.274 122.597 202.215 123.313L202.029 122.261C206.09 121.544 208.802 117.673 208.086 113.612C208.086 113.61 208.086 113.609 208.086 113.608L209.136 113.423L209.136 113.424Z" fill="white"/>
<path d="M21.7918 110.015C20.2411 115.803 23.5204 121.748 29.1588 123.569L29.7118 123.731L29.2981 125.275L29.2971 125.275C23.324 123.675 17.184 127.218 15.581 133.19L14.0368 132.776C15.5837 126.99 12.3051 121.05 6.66902 119.229L6.11533 119.066L6.52934 117.52L6.53003 117.522C12.5047 119.123 18.6465 115.577 20.2474 109.602C20.2481 109.599 20.2488 109.597 20.2494 109.594L21.7936 110.008C21.793 110.01 21.7924 110.013 21.7918 110.015Z" fill="white"/>
<rect x="30.9375" y="167.828" width="180" height="64" rx="8" fill="url(#paint9_radial_4142_88233)"/>
<rect x="78.0928" y="190.828" width="48" height="6" rx="3" fill="#80B3FF"/>
<rect x="42.0928" y="190.828" width="28" height="6" rx="3" fill="#80B3FF"/>
<g style="mix-blend-mode:screen">
<rect x="42.0928" y="204.828" width="72" height="4" rx="2" fill="#E1E8F3"/>
</g>
<g style="mix-blend-mode:screen">
<rect x="122.093" y="204.828" width="24" height="4" rx="2" fill="#E1E8F3"/>
</g>
<g style="mix-blend-mode:screen">
<rect x="154.093" y="204.828" width="32" height="4" rx="2" fill="#E1E8F3"/>
</g>
<g style="mix-blend-mode:screen">
<rect x="42.0928" y="178.828" width="32" height="4" rx="2" fill="#E1E8F3"/>
</g>
<g style="mix-blend-mode:screen">
<rect x="42.0928" y="216.828" width="48" height="4" rx="2" fill="#E1E8F3"/>
</g>
<g style="mix-blend-mode:screen">
<rect x="98.0928" y="216.828" width="88" height="4" rx="2" fill="#E1E8F3"/>
</g>
<g clip-path="url(#clip3_4142_88233)">
<path d="M113.638 46.8422C113.638 48.7125 112.119 50.0907 110.255 50.0907C108.391 50.0907 106.872 48.7125 106.872 46.8422C106.872 44.9588 108.391 43.5938 110.255 43.5938C112.119 43.5938 113.638 44.9588 113.638 46.8422ZM112.157 46.8422C112.157 45.6735 111.277 44.8738 110.255 44.8738C109.233 44.8738 108.353 45.6735 108.353 46.8422C108.353 47.9993 109.233 48.8107 110.255 48.8107C111.277 48.8107 112.157 47.9978 112.157 46.8422Z" fill="#7D91AF"/>
<path d="M120.937 46.8422C120.937 48.7125 119.418 50.0907 117.554 50.0907C115.689 50.0907 114.17 48.7125 114.17 46.8422C114.17 44.9602 115.689 43.5938 117.554 43.5938C119.418 43.5938 120.937 44.9588 120.937 46.8422ZM119.456 46.8422C119.456 45.6735 118.575 44.8738 117.554 44.8738C116.532 44.8738 115.651 45.6735 115.651 46.8422C115.651 47.9993 116.532 48.8107 117.554 48.8107C118.575 48.8107 119.456 47.9978 119.456 46.8422Z" fill="#7D91AF"/>
<path d="M127.931 43.79V49.6221C127.931 52.0211 126.463 53.0009 124.726 53.0009C123.092 53.0009 122.108 51.9478 121.737 51.0867L123.026 50.5697C123.256 51.0984 123.818 51.7223 124.725 51.7223C125.836 51.7223 126.525 51.0618 126.525 49.8183V49.3511H126.473C126.142 49.7451 125.503 50.0893 124.697 50.0893C123.011 50.0893 121.466 48.6745 121.466 46.854C121.466 45.0203 123.011 43.5938 124.697 43.5938C125.502 43.5938 126.14 43.9379 126.473 44.3202H126.525V43.7915H127.931V43.79ZM126.63 46.854C126.63 45.7101 125.838 44.8738 124.83 44.8738C123.808 44.8738 122.952 45.7101 122.952 46.854C122.952 47.9861 123.808 48.8107 124.83 48.8107C125.838 48.8107 126.63 47.9861 126.63 46.854Z" fill="#7D91AF"/>
<path d="M130.25 40.3711V49.891H128.806V40.3711H130.25Z" fill="#7D91AF"/>
<path d="M135.879 47.9109L137.029 48.6491C136.658 49.1778 135.764 50.0888 134.219 50.0888C132.303 50.0888 130.872 48.6623 130.872 46.8403C130.872 44.9085 132.315 43.5918 134.053 43.5918C135.803 43.5918 136.66 44.9334 136.939 45.6584L137.093 46.0274L132.584 47.826C132.93 48.4777 133.466 48.8102 134.219 48.8102C134.973 48.8102 135.496 48.4528 135.879 47.9109ZM132.341 46.7422L135.355 45.5368C135.189 45.1311 134.69 44.8484 134.103 44.8484C133.351 44.8484 132.303 45.4885 132.341 46.7422Z" fill="#7D91AF"/>
<path d="M101.404 45.9961V44.6179H106.225C106.273 44.8581 106.297 45.1422 106.297 45.4498C106.297 46.4838 106.003 47.7624 105.058 48.6734C104.138 49.5961 102.962 50.0882 101.405 50.0882C98.5193 50.0882 96.0925 47.8239 96.0925 45.0441C96.0925 42.2643 98.5193 40 101.405 40C103.002 40 104.139 40.6034 104.994 41.3899L103.984 42.3624C103.371 41.8088 102.541 41.3782 101.404 41.3782C99.2963 41.3782 97.6481 43.0142 97.6481 45.0441C97.6481 47.074 99.2963 48.71 101.404 48.71C102.771 48.71 103.549 48.1813 104.048 47.7009C104.453 47.3113 104.719 46.7547 104.824 45.9946L101.404 45.9961Z" fill="#4285F4"/>
<path d="M101.404 45.9961V44.6179H106.225C106.273 44.8581 106.297 45.1422 106.297 45.4498C106.297 46.4838 106.003 47.7624 105.058 48.6734C104.138 49.5961 102.962 50.0882 101.405 50.0882C98.5193 50.0882 96.0925 47.8239 96.0925 45.0441C96.0925 42.2643 98.5193 40 101.405 40C103.002 40 104.139 40.6034 104.994 41.3899L103.984 42.3624C103.371 41.8088 102.541 41.3782 101.404 41.3782C99.2963 41.3782 97.6481 43.0142 97.6481 45.0441C97.6481 47.074 99.2963 48.71 101.404 48.71C102.771 48.71 103.549 48.1813 104.048 47.7009C104.453 47.3113 104.719 46.7547 104.824 45.9946L101.404 45.9961Z" fill="#7D91AF"/>
</g>
</g>
<defs>
<linearGradient id="paint0_linear_4142_88233" x1="148" y1="240" x2="148" y2="108" gradientUnits="userSpaceOnUse">
<stop stop-color="#35FAFF"/>
<stop offset="1" stop-color="#00CDFF"/>
</linearGradient>
<radialGradient id="paint1_radial_4142_88233" cx="0" cy="0" r="1" gradientTransform="matrix(-200.251 -112.849 212.772 -311.216 242.406 148.647)" gradientUnits="userSpaceOnUse">
<stop stop-color="#E1E8F3"/>
<stop offset="1" stop-color="#F8FCFF"/>
</radialGradient>
<linearGradient id="paint2_linear_4142_88233" x1="93.9496" y1="26.8828" x2="241.156" y2="26.8828" gradientUnits="userSpaceOnUse">
<stop stop-color="white"/>
<stop offset="1" stop-color="#F0F5FD"/>
</linearGradient>
<radialGradient id="paint3_radial_4142_88233" cx="0" cy="0" r="1" gradientTransform="matrix(-218 -17 226.733 -58.4021 225.343 77.5)" gradientUnits="userSpaceOnUse">
<stop stop-color="#F0F5FD"/>
<stop offset="0.256349" stop-color="white"/>
<stop offset="0.883541" stop-color="white"/>
<stop offset="1" stop-color="#F8FCFF"/>
</radialGradient>
<linearGradient id="paint4_linear_4142_88233" x1="233.014" y1="140.729" x2="39.8756" y2="61.0235" gradientUnits="userSpaceOnUse">
<stop stop-color="#3478FF"/>
<stop offset="0.348808" stop-color="#4BDFF9"/>
<stop offset="0.675245" stop-color="white"/>
<stop offset="1" stop-color="#F548F0"/>
</linearGradient>
<linearGradient id="paint5_linear_4142_88233" x1="229.793" y1="138.837" x2="45.1568" y2="58.45" gradientUnits="userSpaceOnUse">
<stop stop-color="#3478FF"/>
<stop offset="0.348808" stop-color="#4BDFF9"/>
<stop offset="0.675245" stop-color="white"/>
<stop offset="1" stop-color="#F548F0"/>
</linearGradient>
<radialGradient id="paint6_radial_4142_88233" cx="0" cy="0" r="1" gradientTransform="matrix(-200 -59.9399 213.649 -147.62 219.199 156.961)" gradientUnits="userSpaceOnUse">
<stop stop-color="#E1E8F3"/>
<stop offset="1" stop-color="white"/>
</radialGradient>
<radialGradient id="paint7_radial_4142_88233" cx="0" cy="0" r="1" gradientTransform="matrix(45.74 -0.652521 0.785071 46.6028 19.1992 118.599)" gradientUnits="userSpaceOnUse">
<stop stop-color="#C871F3"/>
<stop offset="0.646944" stop-color="white" stop-opacity="0"/>
</radialGradient>
<radialGradient id="paint8_radial_4142_88233" cx="0" cy="0" r="1" gradientTransform="matrix(-35.0087 -11.7512 13.2876 -40.1747 213.671 123.877)" gradientUnits="userSpaceOnUse">
<stop stop-color="#388AFE"/>
<stop offset="0.752027" stop-color="white" stop-opacity="0"/>
</radialGradient>
<radialGradient id="paint9_radial_4142_88233" cx="0" cy="0" r="1" gradientTransform="matrix(-271.7 -65.5188 119.442 -444.996 302.637 236.945)" gradientUnits="userSpaceOnUse">
<stop stop-color="white" stop-opacity="0.5"/>
<stop offset="1" stop-color="#F0F5FD"/>
</radialGradient>
<clipPath id="clip0_4142_88233">
<rect width="240" height="240" fill="white"/>
</clipPath>
<clipPath id="clip1_4142_88233">
<rect x="26.4004" y="19.8828" width="187" height="122.117" rx="8" fill="white"/>
</clipPath>
<clipPath id="clip2_4142_88233">
<rect x="19.2002" y="58.7617" width="201.6" height="21.6" rx="10.8" fill="white"/>
</clipPath>
<clipPath id="clip3_4142_88233">
<rect width="41" height="13" fill="white" transform="translate(96.0928 40)"/>
</clipPath>
</defs>
</svg>
