<svg width="240" height="240" viewBox="0 0 240 240" fill="none" xmlns="http://www.w3.org/2000/svg">
<g clip-path="url(#clip0_4142_88078)">
<path d="M67.859 108.004L240 108L231.492 202.697C229.596 223.803 211.449 239.996 189.692 239.997L56 240L67.859 108.004Z" fill="#00CDFF"/>
<path d="M9.92171 16.5195C10.7249 7.17169 18.4116 -0.000336182 27.6267 1.18189e-08L96 0.00249446L84.6589 132L0 131.997L9.92171 16.5195Z" fill="#007CCC"/>
<path d="M16 56.3945C16 51.9763 19.5817 48.3945 24 48.3945H216C220.418 48.3945 224 51.9763 224 56.3945V180.395C224 184.813 220.418 188.395 216 188.395H24C19.5817 188.395 16 184.813 16 180.395V56.3945Z" fill="url(#paint0_radial_4142_88078)"/>
<path d="M161 92.3945H207V188.395H161V92.3945Z" fill="url(#paint1_linear_4142_88078)"/>
<ellipse cx="184" cy="92.3984" rx="23" ry="8" fill="url(#paint2_linear_4142_88078)"/>
<rect x="97" y="124.395" width="46" height="64" fill="url(#paint3_linear_4142_88078)"/>
<ellipse cx="120" cy="125.395" rx="23" ry="8" fill="url(#paint4_linear_4142_88078)"/>
<path d="M33 140.395H79V188.395H33V140.395Z" fill="url(#paint5_linear_4142_88078)"/>
<ellipse cx="56" cy="140.395" rx="23" ry="8" fill="url(#paint6_linear_4142_88078)"/>
<path d="M16 56.3945C16 51.9763 19.5817 48.3945 24 48.3945H216C220.418 48.3945 224 51.9763 224 56.3945V64.3945H16V56.3945Z" fill="url(#paint7_linear_4142_88078)"/>
<circle cx="26.7964" cy="56.3945" r="3" fill="#7D91AF"/>
<circle cx="38.7964" cy="56.3945" r="3" fill="#7D91AF"/>
<circle cx="50.7964" cy="56.3945" r="3" fill="#7D91AF"/>
<path d="M152 172.285H206C207.105 172.285 208 173.181 208 174.285C208 175.39 207.105 176.285 206 176.285H152V172.285Z" fill="#7D91AF"/>
<path d="M32 174.285C32 173.181 32.8954 172.285 34 172.285H88V176.285H34C32.8954 176.285 32 175.39 32 174.285Z" fill="#7D91AF"/>
<rect x="92" y="172.285" width="56" height="4" fill="#7D91AF"/>
<path d="M53.1738 165.191H46.1738C45.0693 165.191 44.1738 164.296 44.1738 163.191V159.191C44.1738 158.087 45.0693 157.191 46.1738 157.191H66.1738C67.2784 157.191 68.1738 158.087 68.1738 159.191V163.191C68.1738 164.296 67.2784 165.191 66.1738 165.191H59.1738L56.9736 168.711C56.5736 169.351 55.774 169.351 55.374 168.711L53.1738 165.191Z" fill="#ACB8CC"/>
<path d="M117 165.191H110C108.895 165.191 108 164.296 108 163.191V151.191C108 150.087 108.895 149.191 110 149.191H130C131.105 149.191 132 150.087 132 151.191V163.191C132 164.296 131.105 165.191 130 165.191H123L120.8 168.711C120.4 169.351 119.6 169.351 119.2 168.711L117 165.191Z" fill="#ACB8CC"/>
<path d="M180.826 165.191H173.826C172.722 165.191 171.826 164.296 171.826 163.191V143.191C171.826 142.087 172.722 141.191 173.826 141.191H193.826C194.931 141.191 195.826 142.087 195.826 143.191V163.191C195.826 164.296 194.931 165.191 193.826 165.191H186.826L184.626 168.711C184.226 169.351 183.426 169.351 183.026 168.711L180.826 165.191Z" fill="#ACB8CC"/>
<rect x="92" y="87.3945" width="56" height="56" rx="28" fill="url(#paint8_radial_4142_88078)"/>
<path d="M136 115.395L112 129.251L112 101.538L136 115.395Z" fill="white"/>
<path style="mix-blend-mode:multiply" d="M16 160.781H224V180.395C224 184.813 220.418 188.395 216 188.395H24C19.5817 188.395 16 184.813 16 180.395V160.781Z" fill="url(#paint9_linear_4142_88078)"/>
</g>
<defs>
<radialGradient id="paint0_radial_4142_88078" cx="0" cy="0" r="1" gradientTransform="matrix(-221.152 -128.398 231.119 -351.869 255.171 206.805)" gradientUnits="userSpaceOnUse">
<stop stop-color="#ACB8CC"/>
<stop offset="1" stop-color="#F0F5FD"/>
</radialGradient>
<linearGradient id="paint1_linear_4142_88078" x1="157.634" y1="140.985" x2="218.213" y2="166.14" gradientUnits="userSpaceOnUse">
<stop stop-color="#F0F5FD"/>
<stop offset="1" stop-color="#ACB8CC"/>
</linearGradient>
<linearGradient id="paint2_linear_4142_88078" x1="207" y1="104.333" x2="161" y2="92.3984" gradientUnits="userSpaceOnUse">
<stop stop-color="#E1E8F3"/>
<stop offset="1" stop-color="#F0F5FD"/>
</linearGradient>
<linearGradient id="paint3_linear_4142_88078" x1="93.6336" y1="156.788" x2="144.806" y2="188.662" gradientUnits="userSpaceOnUse">
<stop stop-color="#F0F5FD"/>
<stop offset="1" stop-color="#ACB8CC"/>
</linearGradient>
<linearGradient id="paint4_linear_4142_88078" x1="143" y1="137.329" x2="97" y2="125.395" gradientUnits="userSpaceOnUse">
<stop stop-color="#E1E8F3"/>
<stop offset="1" stop-color="#F0F5FD"/>
</linearGradient>
<linearGradient id="paint5_linear_4142_88078" x1="29.6336" y1="164.69" x2="71.6677" y2="199.598" gradientUnits="userSpaceOnUse">
<stop stop-color="#F0F5FD"/>
<stop offset="1" stop-color="#ACB8CC"/>
</linearGradient>
<linearGradient id="paint6_linear_4142_88078" x1="79" y1="152.329" x2="33" y2="140.395" gradientUnits="userSpaceOnUse">
<stop stop-color="#E1E8F3"/>
<stop offset="1" stop-color="#F0F5FD"/>
</linearGradient>
<linearGradient id="paint7_linear_4142_88078" x1="16" y1="56.3945" x2="224" y2="56.3945" gradientUnits="userSpaceOnUse">
<stop stop-color="white"/>
<stop offset="1" stop-color="#F0F5FD"/>
</linearGradient>
<radialGradient id="paint8_radial_4142_88078" cx="0" cy="0" r="1" gradientUnits="userSpaceOnUse" gradientTransform="translate(97.7928 91.3491) rotate(50.9315) scale(38.3097 49.7827)">
<stop stop-color="#80B3FF"/>
<stop offset="1" stop-color="#3478FF"/>
</radialGradient>
<linearGradient id="paint9_linear_4142_88078" x1="120" y1="166.945" x2="120" y2="189.492" gradientUnits="userSpaceOnUse">
<stop stop-color="white" stop-opacity="0"/>
<stop offset="1" stop-color="#ACB8CC"/>
</linearGradient>
<clipPath id="clip0_4142_88078">
<rect width="240" height="240" fill="white"/>
</clipPath>
</defs>
</svg>
