<svg width="240" height="240" viewBox="0 0 240 240" fill="none" xmlns="http://www.w3.org/2000/svg">
<g clip-path="url(#clip0_4142_88926)">
<path d="M39.649 108.004L211.79 108L203.282 202.697C201.386 223.803 183.239 239.996 161.482 239.997L27.7901 240L39.649 108.004Z" fill="#00D2FF"/>
<path d="M9.92171 18.0019C10.7249 8.65411 18.4116 1.48209 27.6267 1.48242L96 1.48491L84.6589 133.482L0 133.479L9.92171 18.0019Z" fill="#00FFFF"/>
<path d="M85.7974 10.1953C89.6157 6.71112 95.4595 6.71112 99.2778 10.1953L172.536 77.042H172.538L172.536 77.043L172.538 77.0439H172.536L92.5376 150.042L12.5396 77.0439H12.5376L12.5386 77.043L12.5376 77.042H12.5396L85.7974 10.1953Z" fill="url(#paint0_linear_4142_88926)"/>
<rect x="21.4854" y="52.5078" width="80" height="100" rx="4" transform="rotate(-15 21.4854 52.5078)" fill="url(#paint1_linear_4142_88926)"/>
<rect x="37.9419" y="62.6837" width="9.73881" height="9.73881" rx="2" transform="rotate(-15 37.9419 62.6837)" stroke="#E1E8F3" stroke-width="4"/>
<rect x="48.197" y="100.957" width="9.73881" height="9.73881" rx="2" transform="rotate(-15 48.197 100.957)" stroke="#E1E8F3" stroke-width="4"/>
<rect x="76.2144" y="52.4298" width="9.73881" height="9.73881" rx="2" transform="rotate(-15 76.2144 52.4298)" stroke="#E1E8F3" stroke-width="4"/>
<rect x="53.5369" y="73.5996" width="5" height="5" transform="rotate(-15 53.5369 73.5996)" fill="#E1E8F3" stroke="#E1E8F3"/>
<rect x="57.7794" y="66.252" width="5" height="5" transform="rotate(-15 57.7794 66.252)" fill="#E1E8F3" stroke="#E1E8F3"/>
<rect x="67.8719" y="80.7344" width="5" height="5" transform="rotate(-15 67.8719 80.7344)" fill="#E1E8F3" stroke="#E1E8F3"/>
<rect x="70.9776" y="92.3262" width="5" height="5" transform="rotate(-15 70.9776 92.3262)" fill="#E1E8F3" stroke="#E1E8F3"/>
<rect x="50.6768" y="89.4668" width="5" height="5" transform="rotate(-15 50.6768 89.4668)" fill="#E1E8F3" stroke="#E1E8F3"/>
<rect x="68.5941" y="60.2481" width="5" height="5" transform="rotate(-15 68.5941 60.2481)" fill="#E1E8F3" stroke="#E1E8F3"/>
<rect x="60.9661" y="54.9629" width="5" height="5" transform="rotate(-15 60.9661 54.9629)" fill="#E1E8F3" stroke="#E1E8F3"/>
<rect x="85.6973" y="90.2559" width="5" height="5" transform="rotate(-15 85.6973 90.2559)" fill="#E1E8F3" stroke="#E1E8F3"/>
<rect x="72.1146" y="73.3868" width="5" height="5" transform="rotate(-15 72.1146 73.3868)" fill="#E1E8F3" stroke="#E1E8F3"/>
<rect x="75.2203" y="84.9786" width="5" height="5" transform="rotate(-15 75.2203 84.9786)" fill="#E1E8F3" stroke="#E1E8F3"/>
<rect x="79.463" y="77.6289" width="5" height="5" transform="rotate(-15 79.463 77.6289)" fill="#E1E8F3" stroke="#E1E8F3"/>
<g style="mix-blend-mode:multiply">
<rect x="21.4854" y="52.5078" width="80" height="100" rx="4" transform="rotate(-15 21.4854 52.5078)" fill="url(#paint2_linear_4142_88926)"/>
</g>
<rect x="74.5745" y="59.3262" width="80" height="100" rx="4" transform="rotate(5 74.5745 59.3262)" fill="white"/>
<rect x="83.345" y="79.0684" width="32" height="6" rx="3" transform="rotate(5 83.345 79.0684)" fill="#ACB8CC"/>
<rect x="123.193" y="82.5547" width="20" height="6" rx="3" transform="rotate(5 123.193 82.5547)" fill="#ACB8CC"/>
<rect x="81.6274" y="98.6992" width="60" height="4" rx="2" transform="rotate(5 81.6274 98.6992)" fill="#E1E8F3"/>
<rect x="80.6348" y="110.047" width="22" height="4" rx="2" transform="rotate(5 80.6348 110.047)" fill="#E1E8F3"/>
<rect x="110.064" y="112.623" width="28" height="4" rx="2" transform="rotate(5 110.064 112.623)" fill="#E1E8F3"/>
<path d="M172.538 177.443C172.538 180.803 172.537 182.483 171.883 183.767C171.308 184.896 170.39 185.813 169.261 186.389C167.978 187.043 166.298 187.043 162.938 187.043H22.1372C18.7772 187.043 17.0974 187.043 15.814 186.389C14.685 185.813 13.7671 184.896 13.1919 183.767C12.538 182.483 12.5376 180.803 12.5376 177.443V77.043L92.5376 150.043L172.538 77.043V177.443Z" fill="url(#paint3_linear_4142_88926)"/>
<path d="M172.538 177.443C172.538 180.803 172.537 182.483 171.883 183.767C171.308 184.896 170.39 185.813 169.261 186.389C167.978 187.043 166.298 187.043 162.938 187.043H22.1372C18.7772 187.043 17.0974 187.043 15.814 186.389C14.685 185.813 13.7671 184.896 13.1919 183.767C12.538 182.483 12.5376 180.803 12.5376 177.443V77.043L92.5376 150.043L172.538 77.043V177.443Z" fill="url(#paint4_radial_4142_88926)" fill-opacity="0.5"/>
<path d="M81.7527 123.807C85.56 120.333 87.4636 118.596 89.6218 117.938C91.5224 117.359 93.5526 117.359 95.4533 117.938C97.6114 118.596 99.515 120.333 103.322 123.807L163.392 178.621C166.235 181.215 167.656 182.512 167.781 183.635C167.889 184.609 167.515 185.574 166.779 186.221C165.929 186.966 164.005 186.966 160.156 186.966H24.9189C21.0701 186.966 19.1457 186.966 18.2965 186.221C17.5603 185.574 17.1861 184.609 17.2942 183.635C17.4189 182.512 18.8404 181.215 21.6835 178.621L81.7527 123.807Z" fill="url(#paint5_linear_4142_88926)"/>
<rect width="160" height="44" rx="6" transform="matrix(1 0 0 -1 67.4624 209.043)" fill="url(#paint6_linear_4142_88926)"/>
<rect width="160" height="44" rx="6" transform="matrix(1 0 0 -1 67.4624 209.043)" fill="url(#paint7_radial_4142_88926)" fill-opacity="0.6"/>
<path d="M93.7922 177.086C94.024 176.529 94.1399 176.25 94.3041 176.167C94.4465 176.094 94.6151 176.094 94.7576 176.167C94.9217 176.25 95.0376 176.529 95.2695 177.086L97.4466 182.321C97.5147 182.485 97.5488 182.567 97.6037 182.629C97.6523 182.684 97.7124 182.728 97.7798 182.757C97.8559 182.79 97.9444 182.797 98.1213 182.811L103.772 183.264C104.374 183.312 104.675 183.336 104.805 183.467C104.918 183.58 104.97 183.74 104.945 183.898C104.916 184.08 104.687 184.276 104.229 184.669L99.9233 188.357C99.7885 188.473 99.7211 188.53 99.6789 188.602C99.6416 188.665 99.6187 188.736 99.6117 188.809C99.6038 188.891 99.6244 188.978 99.6656 189.15L100.981 194.665C101.121 195.252 101.191 195.546 101.107 195.71C101.035 195.852 100.898 195.951 100.741 195.976C100.559 196.005 100.301 195.848 99.7858 195.533L94.9478 192.578C94.7964 192.486 94.7206 192.439 94.6396 192.421C94.568 192.405 94.4937 192.405 94.422 192.421C94.341 192.439 94.2653 192.486 94.1138 192.578L89.2758 195.533C88.7606 195.848 88.5031 196.005 88.3211 195.976C88.1633 195.951 88.0269 195.852 87.9543 195.71C87.8705 195.546 87.9406 195.252 88.0806 194.665L89.396 189.15C89.4372 188.978 89.4578 188.891 89.4499 188.809C89.443 188.736 89.42 188.665 89.3827 188.602C89.3405 188.53 89.2731 188.473 89.1383 188.357L84.8329 184.669C84.3744 184.276 84.1452 184.08 84.1165 183.898C84.0916 183.74 84.1436 183.58 84.2566 183.467C84.3868 183.336 84.6876 183.312 85.2894 183.264L90.9403 182.811C91.1173 182.797 91.2057 182.79 91.2819 182.757C91.3492 182.728 91.4093 182.684 91.4579 182.629C91.5128 182.567 91.5469 182.485 91.6151 182.321L93.7922 177.086Z" fill="#0062FF"/>
<path d="M120.258 177.086C120.49 176.529 120.606 176.25 120.77 176.167C120.912 176.094 121.081 176.094 121.223 176.167C121.388 176.25 121.503 176.529 121.735 177.086L123.912 182.321C123.981 182.485 124.015 182.567 124.07 182.629C124.118 182.684 124.178 182.728 124.246 182.757C124.322 182.79 124.41 182.797 124.587 182.811L130.238 183.264C130.84 183.312 131.141 183.336 131.271 183.467C131.384 183.58 131.436 183.74 131.411 183.898C131.382 184.08 131.153 184.276 130.695 184.669L126.389 188.357C126.254 188.473 126.187 188.53 126.145 188.602C126.107 188.665 126.084 188.736 126.078 188.809C126.07 188.891 126.09 188.978 126.131 189.15L127.447 194.665C127.587 195.252 127.657 195.546 127.573 195.71C127.501 195.852 127.364 195.951 127.206 195.976C127.024 196.005 126.767 195.848 126.252 195.533L121.414 192.578C121.262 192.486 121.186 192.439 121.105 192.421C121.034 192.405 120.959 192.405 120.888 192.421C120.807 192.439 120.731 192.486 120.58 192.578L115.742 195.533C115.226 195.848 114.969 196.005 114.787 195.976C114.629 195.951 114.493 195.852 114.42 195.71C114.336 195.546 114.406 195.252 114.546 194.665L115.862 189.15C115.903 188.978 115.924 188.891 115.916 188.809C115.909 188.736 115.886 188.665 115.849 188.602C115.806 188.53 115.739 188.473 115.604 188.357L111.299 184.669C110.84 184.276 110.611 184.08 110.582 183.898C110.557 183.74 110.609 183.58 110.722 183.467C110.853 183.336 111.153 183.312 111.755 183.264L117.406 182.811C117.583 182.797 117.672 182.79 117.748 182.757C117.815 182.728 117.875 182.684 117.924 182.629C117.979 182.567 118.013 182.485 118.081 182.321L120.258 177.086Z" fill="#0062FF"/>
<path d="M146.724 177.086C146.956 176.529 147.072 176.25 147.236 176.167C147.378 176.094 147.547 176.094 147.689 176.167C147.854 176.25 147.97 176.529 148.201 177.086L150.378 182.321C150.447 182.485 150.481 182.567 150.536 182.629C150.584 182.684 150.644 182.728 150.712 182.757C150.788 182.79 150.876 182.797 151.053 182.811L156.704 183.264C157.306 183.312 157.607 183.336 157.737 183.467C157.85 183.58 157.902 183.74 157.877 183.898C157.848 184.08 157.619 184.276 157.161 184.669L152.855 188.357C152.72 188.473 152.653 188.53 152.611 188.602C152.573 188.665 152.551 188.736 152.544 188.809C152.536 188.891 152.556 188.978 152.597 189.15L153.913 194.665C154.053 195.252 154.123 195.546 154.039 195.71C153.967 195.852 153.83 195.951 153.672 195.976C153.49 196.005 153.233 195.848 152.718 195.533L147.88 192.578C147.728 192.486 147.652 192.439 147.571 192.421C147.5 192.405 147.426 192.405 147.354 192.421C147.273 192.439 147.197 192.486 147.046 192.578L142.208 195.533C141.693 195.848 141.435 196.005 141.253 195.976C141.095 195.951 140.959 195.852 140.886 195.71C140.802 195.546 140.872 195.252 141.013 194.665L142.328 189.15C142.369 188.978 142.39 188.891 142.382 188.809C142.375 188.736 142.352 188.665 142.315 188.602C142.272 188.53 142.205 188.473 142.07 188.357L137.765 184.669C137.306 184.276 137.077 184.08 137.048 183.898C137.023 183.74 137.076 183.58 137.188 183.467C137.319 183.336 137.62 183.312 138.221 183.264L143.872 182.811C144.049 182.797 144.138 182.79 144.214 182.757C144.281 182.728 144.341 182.684 144.39 182.629C144.445 182.567 144.479 182.485 144.547 182.321L146.724 177.086Z" fill="#0062FF"/>
<path d="M173.19 177.086C173.422 176.529 173.538 176.25 173.702 176.167C173.844 176.094 174.013 176.094 174.155 176.167C174.319 176.25 174.435 176.529 174.667 177.086L176.844 182.321C176.912 182.485 176.947 182.567 177.001 182.629C177.05 182.684 177.11 182.728 177.177 182.757C177.254 182.79 177.342 182.797 177.519 182.811L183.17 183.264C183.772 183.312 184.073 183.336 184.203 183.467C184.316 183.58 184.368 183.74 184.343 183.898C184.314 184.08 184.085 184.276 183.626 184.669L179.321 188.357C179.186 188.473 179.119 188.53 179.077 188.602C179.039 188.665 179.016 188.736 179.009 188.809C179.002 188.891 179.022 188.978 179.063 189.15L180.379 194.665C180.519 195.252 180.589 195.546 180.505 195.71C180.432 195.852 180.296 195.951 180.138 195.976C179.956 196.005 179.699 195.848 179.184 195.533L174.346 192.578C174.194 192.486 174.118 192.439 174.037 192.421C173.966 192.405 173.891 192.405 173.82 192.421C173.739 192.439 173.663 192.486 173.512 192.578L168.674 195.533C168.158 195.848 167.901 196.005 167.719 195.976C167.561 195.951 167.425 195.852 167.352 195.71C167.268 195.546 167.338 195.252 167.478 194.665L168.794 189.15C168.835 188.978 168.855 188.891 168.848 188.809C168.841 188.736 168.818 188.665 168.78 188.602C168.738 188.53 168.671 188.473 168.536 188.357L164.231 184.669C163.772 184.276 163.543 184.08 163.514 183.898C163.489 183.74 163.541 183.58 163.654 183.467C163.784 183.336 164.085 183.312 164.687 183.264L170.338 182.811C170.515 182.797 170.603 182.79 170.68 182.757C170.747 182.728 170.807 182.684 170.856 182.629C170.911 182.567 170.945 182.485 171.013 182.321L173.19 177.086Z" fill="#0062FF"/>
<path d="M199.656 177.086C199.888 176.529 200.004 176.25 200.168 176.167C200.31 176.094 200.479 176.094 200.621 176.167C200.786 176.25 200.901 176.529 201.133 177.086L203.31 182.321C203.379 182.485 203.413 182.567 203.468 182.629C203.516 182.684 203.576 182.728 203.644 182.757C203.72 182.79 203.808 182.797 203.985 182.811L209.636 183.264C210.238 183.312 210.539 183.336 210.669 183.467C210.782 183.58 210.834 183.74 210.809 183.898C210.78 184.08 210.551 184.276 210.093 184.669L205.787 188.357C205.652 188.473 205.585 188.53 205.543 188.602C205.505 188.665 205.482 188.736 205.475 188.809C205.468 188.891 205.488 188.978 205.529 189.15L206.845 194.665C206.985 195.252 207.055 195.546 206.971 195.71C206.898 195.852 206.762 195.951 206.604 195.976C206.422 196.005 206.165 195.848 205.65 195.533L200.812 192.578C200.66 192.486 200.584 192.439 200.503 192.421C200.432 192.405 200.357 192.405 200.286 192.421C200.205 192.439 200.129 192.486 199.978 192.578L195.14 195.533C194.624 195.848 194.367 196.005 194.185 195.976C194.027 195.951 193.891 195.852 193.818 195.71C193.734 195.546 193.804 195.252 193.944 194.665L195.26 189.15C195.301 188.978 195.322 188.891 195.314 188.809C195.307 188.736 195.284 188.665 195.246 188.602C195.204 188.53 195.137 188.473 195.002 188.357L190.697 184.669C190.238 184.276 190.009 184.08 189.98 183.898C189.955 183.74 190.007 183.58 190.12 183.467C190.251 183.336 190.551 183.312 191.153 183.264L196.804 182.811C196.981 182.797 197.069 182.79 197.146 182.757C197.213 182.728 197.273 182.684 197.322 182.629C197.377 182.567 197.411 182.485 197.479 182.321L199.656 177.086Z" fill="#ACB8CC"/>
<circle cx="177.358" cy="146.84" r="24" fill="url(#paint8_radial_4142_88926)"/>
<path d="M173.512 134.283C173.571 133.842 174.133 133.691 174.404 134.044L179.465 140.619C179.579 140.767 179.767 140.839 179.951 140.806L188.112 139.305C188.549 139.225 188.866 139.713 188.614 140.08L183.925 146.924C183.819 147.079 183.808 147.28 183.898 147.445L187.846 154.742C188.058 155.133 187.692 155.585 187.265 155.46L179.306 153.115C179.126 153.062 178.932 153.114 178.803 153.25L173.083 159.26C172.776 159.582 172.233 159.373 172.221 158.929L171.992 150.635C171.986 150.448 171.877 150.279 171.708 150.198L164.224 146.615C163.823 146.423 163.853 145.842 164.272 145.693L172.089 142.912C172.266 142.849 172.393 142.693 172.417 142.507L173.512 134.283Z" fill="white"/>
</g>
<defs>
<linearGradient id="paint0_linear_4142_88926" x1="92.5376" y1="7.58203" x2="92.5376" y2="157.905" gradientUnits="userSpaceOnUse">
<stop stop-color="#7D91AF"/>
<stop offset="1" stop-color="#3B4556"/>
</linearGradient>
<linearGradient id="paint1_linear_4142_88926" x1="25.6607" y1="50.2293" x2="45.5021" y2="75.5782" gradientUnits="userSpaceOnUse">
<stop stop-color="#F0F5FD"/>
<stop offset="1" stop-color="white"/>
</linearGradient>
<linearGradient id="paint2_linear_4142_88926" x1="69.4138" y1="133.319" x2="14.678" y2="64.8917" gradientUnits="userSpaceOnUse">
<stop stop-color="#ACB8CC"/>
<stop offset="1" stop-color="white" stop-opacity="0"/>
</linearGradient>
<linearGradient id="paint3_linear_4142_88926" x1="92.5376" y1="103.738" x2="92.5376" y2="187.043" gradientUnits="userSpaceOnUse">
<stop stop-color="#E1E8F3"/>
<stop offset="1" stop-color="#ACB8CC"/>
</linearGradient>
<radialGradient id="paint4_radial_4142_88926" cx="0" cy="0" r="1" gradientUnits="userSpaceOnUse" gradientTransform="translate(95.8575 119.816) rotate(-94.9348) scale(38.5937 66.1493)">
<stop stop-color="white"/>
<stop offset="1" stop-color="white" stop-opacity="0"/>
</radialGradient>
<linearGradient id="paint5_linear_4142_88926" x1="92.5376" y1="130.623" x2="92.5376" y2="186.965" gradientUnits="userSpaceOnUse">
<stop stop-color="#F0F5FD"/>
<stop offset="0.880676" stop-color="#ACB8CC"/>
</linearGradient>
<linearGradient id="paint6_linear_4142_88926" x1="90.0998" y1="9.97316" x2="160" y2="28.8726" gradientUnits="userSpaceOnUse">
<stop stop-color="white"/>
<stop offset="1" stop-color="#F0F5FD"/>
</linearGradient>
<radialGradient id="paint7_radial_4142_88926" cx="0" cy="0" r="1" gradientUnits="userSpaceOnUse" gradientTransform="translate(107.164 43.0078) rotate(-125.222) scale(25.7156 20.532)">
<stop stop-color="#60B1FF"/>
<stop offset="1" stop-color="#BAE8FF" stop-opacity="0"/>
</radialGradient>
<radialGradient id="paint8_radial_4142_88926" cx="0" cy="0" r="1" gradientUnits="userSpaceOnUse" gradientTransform="translate(158.323 126.229) rotate(50.9315) scale(32.8369 42.6709)">
<stop stop-color="#60B1FF"/>
<stop offset="1" stop-color="#0062FF"/>
</radialGradient>
<clipPath id="clip0_4142_88926">
<rect width="240" height="240" fill="white"/>
</clipPath>
</defs>
</svg>
