<svg width="240" height="240" viewBox="0 0 240 240" fill="none" xmlns="http://www.w3.org/2000/svg">
<g clip-path="url(#clip0_4116_86846)">
<path d="M44.6119 106.465L216.753 106.461L208.245 201.158C206.349 222.264 188.202 238.457 166.445 238.458L32.7529 238.461L44.6119 106.465Z" fill="url(#paint0_linear_4116_86846)"/>
<path d="M9.92171 16.5195C10.7249 7.17169 18.4116 -0.000336182 27.6267 1.18189e-08L96 0.00249446L84.6589 132L0 131.997L9.92171 16.5195Z" fill="#00C1FF"/>
<path opacity="0.5" d="M122.743 4.39752C149.366 4.39752 175.172 13.5868 195.804 30.4132C216.435 47.2396 230.627 70.6717 235.981 96.7512C241.336 122.831 237.525 149.959 225.193 173.554C212.86 197.149 192.762 215.764 168.294 226.255L122.743 120.002L122.743 4.39752Z" fill="url(#paint1_linear_4116_86846)"/>
<path opacity="0.8" d="M122.743 46.73C139.616 46.73 155.972 52.5542 169.049 63.2188C182.125 73.8834 191.12 88.7347 194.513 105.264C197.907 121.793 195.492 138.987 187.675 153.942C179.859 168.896 167.121 180.695 151.613 187.344L122.743 120.001L122.743 46.73Z" fill="url(#paint2_linear_4116_86846)"/>
<path d="M74.3296 168.775C74.3528 168.825 77.664 175.983 79.5917 179.427C79.6088 179.46 82.1782 184.437 83.3526 186.554C86.9884 193.107 93.246 202.982 93.2853 203.044L89.1007 204.567L89.1011 204.568L78.6461 208.373C66.271 195.376 57.3732 175.052 57.3335 174.961L74.3296 168.775Z" fill="url(#paint3_linear_4116_86846)"/>
<path d="M66.038 163.51L35.4402 174.647C35.3396 174.691 35.2382 174.734 35.1343 174.772C30.1364 176.59 23.2203 170.193 19.6864 160.483C16.1528 150.774 17.3391 141.427 22.3368 139.608C22.3387 139.607 22.3405 139.607 22.3423 139.606L22.3383 139.595L53.2408 128.347L66.038 163.51Z" fill="url(#paint4_linear_4116_86846)"/>
<path d="M33.5336 127.044L67.7947 114.574L85.9774 164.534L51.5767 177.055L51.575 177.05C44.9573 179.456 35.5244 170.226 30.5039 156.431C25.4833 142.636 26.7771 129.499 33.3946 127.09C33.4406 127.073 33.4874 127.059 33.5336 127.044Z" fill="#D7F6FF"/>
<ellipse cx="25.8006" cy="50.1237" rx="25.8006" ry="50.1237" transform="matrix(0.939693 -0.34202 0.341997 0.939701 93.813 77.4102)" fill="#0062FF"/>
<ellipse cx="25.8006" cy="50.1237" rx="25.8006" ry="50.1237" transform="matrix(0.939693 -0.34202 0.341997 0.939701 93.813 77.4102)" fill="url(#paint5_linear_4116_86846)"/>
<path d="M152.366 162.783C152.365 162.782 152.362 162.781 152.356 162.779C152.358 162.778 152.361 162.777 152.364 162.776L152.366 162.783ZM106.884 83.5236C104.197 94.2448 105.389 109.208 110.957 124.508C116.724 140.352 125.851 152.903 135.132 159.194C125.559 157.672 113.785 156.616 104.707 158.412C97.9511 159.749 88.9395 163.325 86.5407 164.302C86.3765 164.379 86.2099 164.451 86.0386 164.513C86.0038 164.526 85.9675 164.535 85.9326 164.547L85.9317 164.548C79.3195 166.821 69.9596 157.616 64.9653 143.894C59.9711 130.171 61.2251 117.103 67.7514 114.594L67.7491 114.587C67.8309 114.549 78.565 109.442 85.226 104.885C92.8317 99.6822 100.734 91.06 106.884 83.5236ZM118.08 68.5749C118.079 68.5754 118.077 68.5761 118.075 68.5766C118.077 68.5742 118.079 68.5726 118.079 68.5722L118.08 68.5749Z" fill="url(#paint6_linear_4116_86846)"/>
<path d="M131.966 106.889C131.976 106.885 131.986 106.88 131.997 106.876C132.069 106.85 132.142 106.827 132.215 106.809C134.504 106.244 137.656 109.452 139.37 114.161C141.139 119.022 140.706 123.643 138.404 124.481C138.402 124.482 138.399 124.482 138.397 124.482L117.096 138.025C114.797 133.883 112.719 129.347 110.957 124.505C109.386 120.188 108.164 115.897 107.279 111.722L131.966 106.889Z" fill="url(#paint7_linear_4116_86846)"/>
<ellipse cx="4.43705" cy="9.36738" rx="4.43705" ry="9.36738" transform="matrix(0.939693 -0.34202 -0.341997 -0.939701 134.234 126.004)" fill="#D7F6FF"/>
<path d="M118.057 68.5838C131.447 63.7105 149.977 80.8478 159.444 106.861C168.912 132.874 165.731 157.912 152.341 162.786C138.952 167.66 120.422 150.523 110.955 124.51C101.487 98.4965 104.667 73.4574 118.057 68.5838ZM120.105 74.211C109.323 78.1356 107.339 99.8867 115.676 122.793C124.012 145.698 139.512 161.085 150.294 157.161C161.076 153.236 163.059 131.486 154.723 108.58C146.387 85.6747 130.888 70.2869 120.105 74.211Z" fill="url(#paint8_radial_4116_86846)"/>
<ellipse cx="21.5684" cy="21.5692" rx="21.5684" ry="21.5692" transform="matrix(0.996194 0.0871591 -0.0871524 0.996195 188.184 36.6445)" fill="url(#paint9_radial_4116_86846)"/>
<ellipse cx="21.5684" cy="21.5692" rx="21.5684" ry="21.5692" transform="matrix(0.996194 0.0871591 -0.0871524 0.996195 188.184 36.6445)" fill="url(#paint10_radial_4116_86846)"/>
<path d="M207.514 63.2297C211.978 63.6186 215.811 65.9268 218.274 69.2704C218.99 70.2431 218.814 71.5925 217.879 72.3574C214.773 74.8978 210.712 76.2758 206.399 75.8985C202.092 75.5216 198.336 73.4638 195.718 70.4287C194.929 69.513 194.989 68.1522 195.864 67.3181C198.873 64.4511 203.051 62.841 207.514 63.2297ZM209.425 46.8936C213.149 47.2183 215.902 50.5008 215.575 54.2251C215.248 57.9492 211.964 60.7059 208.24 60.3817C204.516 60.0572 201.762 56.7743 202.089 53.0501C202.416 49.3257 205.701 46.5692 209.425 46.8936Z" fill="white"/>
<g style="mix-blend-mode:screen" opacity="0.5">
<path d="M122.743 46.73C139.616 46.73 155.972 52.5542 169.049 63.2188C182.125 73.8834 191.12 88.7347 194.513 105.264C197.907 121.793 195.492 138.987 187.675 153.942C179.859 168.896 167.121 180.695 151.613 187.344L122.743 120.001L122.743 46.73Z" fill="url(#paint11_linear_4116_86846)"/>
</g>
<ellipse cx="25.2368" cy="25.2376" rx="25.2368" ry="25.2376" transform="matrix(0.965923 -0.258828 0.25881 0.965928 143.105 96.4414)" fill="url(#paint12_radial_4116_86846)"/>
<ellipse cx="25.2368" cy="25.2376" rx="25.2368" ry="25.2376" transform="matrix(0.965923 -0.258828 0.25881 0.965928 143.105 96.4414)" fill="url(#paint13_radial_4116_86846)"/>
<path d="M174.995 117.929C180.058 116.571 185.197 117.577 189.244 120.269C190.421 121.053 190.766 122.607 190.044 123.822C187.646 127.856 183.732 130.994 178.841 132.305C173.954 133.615 169 132.856 164.908 130.566C163.674 129.876 163.195 128.356 163.823 127.089C165.981 122.731 169.93 119.287 174.995 117.929ZM170.561 99.2092C174.784 98.0769 179.125 100.585 180.257 104.81C181.388 109.036 178.882 113.38 174.659 114.513C170.436 115.645 166.095 113.137 164.963 108.912C163.831 104.686 166.338 100.342 170.561 99.2092Z" fill="white"/>
</g>
<defs>
<linearGradient id="paint0_linear_4116_86846" x1="124.753" y1="238.461" x2="124.753" y2="106.461" gradientUnits="userSpaceOnUse">
<stop stop-color="#00FFFF"/>
<stop offset="1" stop-color="#00D2FF"/>
</linearGradient>
<linearGradient id="paint1_linear_4116_86846" x1="122.743" y1="120.002" x2="222.96" y2="59.4815" gradientUnits="userSpaceOnUse">
<stop offset="0.357717" stop-color="#D7F6FF" stop-opacity="0"/>
<stop offset="1" stop-color="#D7F6FF"/>
</linearGradient>
<linearGradient id="paint2_linear_4116_86846" x1="122.743" y1="120.001" x2="186.26" y2="81.6424" gradientUnits="userSpaceOnUse">
<stop offset="0.357717" stop-color="#D7F6FF" stop-opacity="0"/>
<stop offset="1" stop-color="#D7F6FF"/>
</linearGradient>
<linearGradient id="paint3_linear_4116_86846" x1="63.1984" y1="166.69" x2="78.3551" y2="200.544" gradientUnits="userSpaceOnUse">
<stop stop-color="#0029BC"/>
<stop offset="1" stop-color="#0062FF"/>
</linearGradient>
<linearGradient id="paint4_linear_4116_86846" x1="19.4689" y1="136.218" x2="38.6614" y2="170.19" gradientUnits="userSpaceOnUse">
<stop stop-color="#BAE8FF"/>
<stop offset="1" stop-color="#0062FF"/>
</linearGradient>
<linearGradient id="paint5_linear_4116_86846" x1="-3.58291e-07" y1="50.1237" x2="96.1782" y2="61.44" gradientUnits="userSpaceOnUse">
<stop stop-color="#0029BC"/>
<stop offset="1" stop-color="#0062FF"/>
</linearGradient>
<linearGradient id="paint6_linear_4116_86846" x1="56.7017" y1="79.0686" x2="103.529" y2="155.847" gradientUnits="userSpaceOnUse">
<stop stop-color="#BAE8FF"/>
<stop offset="1" stop-color="#0062FF"/>
</linearGradient>
<linearGradient id="paint7_linear_4116_86846" x1="148.61" y1="106.705" x2="106.25" y2="126.799" gradientUnits="userSpaceOnUse">
<stop stop-color="#BAE8FF"/>
<stop offset="1" stop-color="#0029BC"/>
</linearGradient>
<radialGradient id="paint8_radial_4116_86846" cx="0" cy="0" r="1" gradientTransform="matrix(56.3738 34.0633 -56.1765 92.9773 105.975 75.6832)" gradientUnits="userSpaceOnUse">
<stop stop-color="#60B1FF"/>
<stop offset="1" stop-color="#0029BC"/>
</radialGradient>
<radialGradient id="paint9_radial_4116_86846" cx="0" cy="0" r="1" gradientTransform="matrix(-2.67447 -54.7869 38.9372 -1.90185 23.3716 42.1807)" gradientUnits="userSpaceOnUse">
<stop stop-color="#ACB8CC"/>
<stop offset="0.342945" stop-color="#E1E8F3"/>
<stop offset="0.880207" stop-color="#7D91AF"/>
</radialGradient>
<radialGradient id="paint10_radial_4116_86846" cx="0" cy="0" r="1" gradientTransform="matrix(15.249 -17.8759 33.3 28.4065 8.71212 42.5677)" gradientUnits="userSpaceOnUse">
<stop stop-color="#60B1FF"/>
<stop offset="1" stop-color="#60B1FF" stop-opacity="0"/>
</radialGradient>
<linearGradient id="paint11_linear_4116_86846" x1="122.743" y1="120.001" x2="186.26" y2="81.6424" gradientUnits="userSpaceOnUse">
<stop offset="0.357717" stop-color="#D7F6FF" stop-opacity="0"/>
<stop offset="1" stop-color="#D7F6FF"/>
</linearGradient>
<radialGradient id="paint12_radial_4116_86846" cx="0" cy="0" r="1" gradientTransform="matrix(54.6155 -32.7961 24.7514 41.2177 4.33434 51.6367)" gradientUnits="userSpaceOnUse">
<stop stop-color="#ACB8CC"/>
<stop offset="0.440483" stop-color="#E1E8F3"/>
<stop offset="1" stop-color="#7D91AF"/>
</radialGradient>
<radialGradient id="paint13_radial_4116_86846" cx="0" cy="0" r="1" gradientTransform="matrix(36.7231 -5.5366 8.77277 58.1806 0.520842 33.8216)" gradientUnits="userSpaceOnUse">
<stop stop-color="#60B1FF"/>
<stop offset="1" stop-color="#60B1FF" stop-opacity="0"/>
</radialGradient>
<clipPath id="clip0_4116_86846">
<rect width="240" height="240" fill="white"/>
</clipPath>
</defs>
</svg>
