<svg width="240" height="240" viewBox="0 0 240 240" fill="none" xmlns="http://www.w3.org/2000/svg">
<g clip-path="url(#clip0_4142_88975)">
<path d="M67.859 131.996L240 132L231.492 37.3026C229.596 16.1972 211.449 0.00376892 189.692 0.00323486L56 0L67.859 131.996Z" fill="url(#paint0_linear_4142_88975)"/>
<path d="M67.859 131.996L240 132L231.492 37.3026C229.596 16.1972 211.449 0.00376892 189.692 0.00323486L56 0L67.859 131.996Z" fill="url(#paint1_linear_4142_88975)"/>
<path d="M9.92171 223.481C10.7249 232.828 18.4116 240 27.6267 240L96 239.998L84.6589 108L0 108.003L9.92171 223.481Z" fill="url(#paint2_linear_4142_88975)"/>
<rect x="43.668" y="16.998" width="152" height="144" rx="14" fill="url(#paint3_radial_4142_88975)"/>
<rect x="43.668" y="16.998" width="152" height="144" rx="14" fill="url(#paint4_radial_4142_88975)" fill-opacity="0.4"/>
<rect x="43.668" y="16.998" width="152" height="144" rx="14" fill="url(#paint5_linear_4142_88975)" fill-opacity="0.5" style="mix-blend-mode:lighten"/>
<rect x="51.7998" y="24.0977" width="24" height="16" rx="6" fill="url(#paint6_radial_4142_88975)"/>
<rect x="76.1973" y="32.0996" width="86.747" height="86.747" rx="43.3735" fill="url(#paint7_linear_4142_88975)"/>
<path d="M83.5708 75.4707C83.5708 55.5885 99.6886 39.4707 119.571 39.4707C139.453 39.4707 155.571 55.5885 155.571 75.4707C155.571 95.353 139.453 111.471 119.571 111.471C99.6886 111.471 83.5708 95.353 83.5708 75.4707Z" fill="url(#paint8_radial_4142_88975)"/>
<mask id="mask0_4142_88975" style="mask-type:alpha" maskUnits="userSpaceOnUse" x="83" y="39" width="73" height="73">
<path d="M83.5703 75.4707C83.5703 55.5885 99.6881 39.4707 119.57 39.4707C139.453 39.4707 155.57 55.5885 155.57 75.4707C155.57 95.353 139.453 111.471 119.57 111.471C99.6881 111.471 83.5703 95.353 83.5703 75.4707Z" fill="url(#paint9_radial_4142_88975)"/>
</mask>
<g mask="url(#mask0_4142_88975)">
<rect x="99.749" y="50.0801" width="88" height="48" rx="6" fill="url(#paint10_linear_4142_88975)"/>
<rect x="105.593" y="57.7559" width="6" height="6" rx="3" fill="#7D91AF"/>
<rect x="116.593" y="59.2559" width="16" height="3" rx="1.5" fill="#7D91AF"/>
<rect x="137.593" y="59.2559" width="8" height="3" rx="1.5" fill="#7D91AF"/>
<rect x="105.593" y="81.248" width="16" height="3" rx="1.5" fill="#E1E8F3"/>
<rect x="149.593" y="88.248" width="16" height="3" rx="1.5" fill="#E1E8F3"/>
<rect x="125.593" y="81.248" width="32" height="3" rx="1.5" fill="#E1E8F3"/>
<rect x="105.593" y="88.248" width="40" height="3" rx="1.5" fill="#E1E8F3"/>
<path d="M108.192 70.7187C108.318 70.4165 108.381 70.2654 108.47 70.2201C108.547 70.1808 108.638 70.1808 108.716 70.2201C108.805 70.2654 108.868 70.4165 108.993 70.7187L109.285 71.4191C109.321 71.5079 109.34 71.5524 109.37 71.5861C109.396 71.6159 109.429 71.6396 109.465 71.6554C109.506 71.6733 109.554 71.6772 109.65 71.6849L110.406 71.7455C110.733 71.7716 110.896 71.7847 110.966 71.8554C111.028 71.9167 111.056 72.0036 111.042 72.0892C111.027 72.1878 110.903 72.2943 110.654 72.5072L110.078 73.0007C110.005 73.0633 109.968 73.0946 109.945 73.1333C109.925 73.1676 109.913 73.2059 109.909 73.2455C109.905 73.2903 109.916 73.3371 109.938 73.4307L110.114 74.1685C110.19 74.4869 110.228 74.6461 110.183 74.735C110.143 74.8122 110.069 74.8659 109.984 74.8796C109.885 74.8952 109.745 74.8099 109.466 74.6393L108.819 74.244C108.737 74.1938 108.696 74.1687 108.652 74.1589C108.613 74.1503 108.573 74.1503 108.534 74.1589C108.49 74.1687 108.449 74.1938 108.367 74.244L107.719 74.6393C107.44 74.8099 107.3 74.8952 107.202 74.8796C107.116 74.8659 107.042 74.8122 107.003 74.735C106.957 74.6461 106.995 74.4869 107.071 74.1685L107.247 73.4307C107.27 73.3371 107.281 73.2903 107.277 73.2455C107.273 73.2059 107.26 73.1676 107.24 73.1333C107.217 73.0946 107.181 73.0633 107.108 73.0007L106.532 72.5072C106.283 72.2943 106.159 72.1878 106.143 72.0892C106.13 72.0036 106.158 71.9167 106.219 71.8554C106.29 71.7847 106.453 71.7716 106.779 71.7455L107.535 71.6849C107.631 71.6772 107.679 71.6733 107.72 71.6554C107.757 71.6396 107.789 71.6159 107.816 71.5861C107.846 71.5524 107.864 71.5079 107.901 71.4191L108.192 70.7187Z" fill="#3478FF"/>
<path d="M114.942 70.7187C115.068 70.4165 115.131 70.2654 115.22 70.2201C115.297 70.1808 115.388 70.1808 115.466 70.2201C115.555 70.2654 115.618 70.4165 115.743 70.7187L116.035 71.4191C116.071 71.5079 116.09 71.5524 116.12 71.5861C116.146 71.6159 116.179 71.6396 116.215 71.6554C116.256 71.6733 116.304 71.6772 116.4 71.6849L117.156 71.7455C117.483 71.7716 117.646 71.7847 117.716 71.8554C117.778 71.9167 117.806 72.0036 117.792 72.0892C117.777 72.1878 117.653 72.2943 117.404 72.5072L116.828 73.0007C116.755 73.0633 116.718 73.0946 116.695 73.1333C116.675 73.1676 116.663 73.2059 116.659 73.2455C116.655 73.2903 116.666 73.3371 116.688 73.4307L116.864 74.1685C116.94 74.4869 116.978 74.6461 116.933 74.735C116.893 74.8122 116.819 74.8659 116.734 74.8796C116.635 74.8952 116.495 74.8099 116.216 74.6393L115.569 74.244C115.487 74.1938 115.446 74.1687 115.402 74.1589C115.363 74.1503 115.323 74.1503 115.284 74.1589C115.24 74.1687 115.199 74.1938 115.117 74.244L114.469 74.6393C114.19 74.8099 114.05 74.8952 113.952 74.8796C113.866 74.8659 113.792 74.8122 113.753 74.735C113.707 74.6461 113.745 74.4869 113.821 74.1685L113.997 73.4307C114.02 73.3371 114.031 73.2903 114.027 73.2455C114.023 73.2059 114.01 73.1676 113.99 73.1333C113.967 73.0946 113.931 73.0633 113.858 73.0007L113.282 72.5072C113.033 72.2943 112.909 72.1878 112.893 72.0892C112.88 72.0036 112.908 71.9167 112.969 71.8554C113.04 71.7847 113.203 71.7716 113.529 71.7455L114.285 71.6849C114.381 71.6772 114.429 71.6733 114.47 71.6554C114.507 71.6396 114.539 71.6159 114.566 71.5861C114.596 71.5524 114.614 71.5079 114.651 71.4191L114.942 70.7187Z" fill="#3478FF"/>
<path d="M121.692 70.7187C121.818 70.4165 121.881 70.2654 121.97 70.2201C122.047 70.1808 122.138 70.1808 122.216 70.2201C122.305 70.2654 122.368 70.4165 122.493 70.7187L122.785 71.4191C122.821 71.5079 122.84 71.5524 122.87 71.5861C122.896 71.6159 122.929 71.6396 122.965 71.6554C123.006 71.6733 123.054 71.6772 123.15 71.6849L123.906 71.7455C124.233 71.7716 124.396 71.7847 124.466 71.8554C124.528 71.9167 124.556 72.0036 124.542 72.0892C124.527 72.1878 124.403 72.2943 124.154 72.5072L123.578 73.0007C123.505 73.0633 123.468 73.0946 123.445 73.1333C123.425 73.1676 123.413 73.2059 123.409 73.2455C123.405 73.2903 123.416 73.3371 123.438 73.4307L123.614 74.1685C123.69 74.4869 123.728 74.6461 123.683 74.735C123.643 74.8122 123.569 74.8659 123.484 74.8796C123.385 74.8952 123.245 74.8099 122.966 74.6393L122.319 74.244C122.237 74.1938 122.196 74.1687 122.152 74.1589C122.113 74.1503 122.073 74.1503 122.034 74.1589C121.99 74.1687 121.949 74.1938 121.867 74.244L121.219 74.6393C120.94 74.8099 120.8 74.8952 120.702 74.8796C120.616 74.8659 120.542 74.8122 120.503 74.735C120.457 74.6461 120.495 74.4869 120.571 74.1685L120.747 73.4307C120.77 73.3371 120.781 73.2903 120.777 73.2455C120.773 73.2059 120.76 73.1676 120.74 73.1333C120.717 73.0946 120.681 73.0633 120.608 73.0007L120.032 72.5072C119.783 72.2943 119.659 72.1878 119.643 72.0892C119.63 72.0036 119.658 71.9167 119.719 71.8554C119.79 71.7847 119.953 71.7716 120.279 71.7455L121.035 71.6849C121.131 71.6772 121.179 71.6733 121.22 71.6554C121.257 71.6396 121.289 71.6159 121.316 71.5861C121.346 71.5524 121.364 71.5079 121.401 71.4191L121.692 70.7187Z" fill="#3478FF"/>
<path d="M128.442 70.7187C128.568 70.4165 128.631 70.2654 128.72 70.2201C128.797 70.1808 128.888 70.1808 128.966 70.2201C129.055 70.2654 129.118 70.4165 129.243 70.7187L129.535 71.4191C129.571 71.5079 129.59 71.5524 129.62 71.5861C129.646 71.6159 129.679 71.6396 129.715 71.6554C129.756 71.6733 129.804 71.6772 129.9 71.6849L130.656 71.7455C130.983 71.7716 131.146 71.7847 131.216 71.8554C131.278 71.9167 131.306 72.0036 131.292 72.0892C131.277 72.1878 131.153 72.2943 130.904 72.5072L130.328 73.0007C130.255 73.0633 130.218 73.0946 130.195 73.1333C130.175 73.1676 130.163 73.2059 130.159 73.2455C130.155 73.2903 130.166 73.3371 130.188 73.4307L130.364 74.1685C130.44 74.4869 130.478 74.6461 130.433 74.735C130.393 74.8122 130.319 74.8659 130.234 74.8796C130.135 74.8952 129.995 74.8099 129.716 74.6393L129.069 74.244C128.987 74.1938 128.946 74.1687 128.902 74.1589C128.863 74.1503 128.823 74.1503 128.784 74.1589C128.74 74.1687 128.699 74.1938 128.617 74.244L127.969 74.6393C127.69 74.8099 127.55 74.8952 127.452 74.8796C127.366 74.8659 127.292 74.8122 127.253 74.735C127.207 74.6461 127.245 74.4869 127.321 74.1685L127.497 73.4307C127.52 73.3371 127.531 73.2903 127.527 73.2455C127.523 73.2059 127.51 73.1676 127.49 73.1333C127.467 73.0946 127.431 73.0633 127.358 73.0007L126.782 72.5072C126.533 72.2943 126.409 72.1878 126.393 72.0892C126.38 72.0036 126.408 71.9167 126.469 71.8554C126.54 71.7847 126.703 71.7716 127.029 71.7455L127.785 71.6849C127.881 71.6772 127.929 71.6733 127.97 71.6554C128.007 71.6396 128.039 71.6159 128.066 71.5861C128.096 71.5524 128.114 71.5079 128.151 71.4191L128.442 70.7187Z" fill="#3478FF"/>
<path d="M135.192 70.7187C135.318 70.4165 135.381 70.2654 135.47 70.2201C135.547 70.1808 135.638 70.1808 135.716 70.2201C135.805 70.2654 135.868 70.4165 135.993 70.7187L136.285 71.4191C136.321 71.5079 136.34 71.5524 136.37 71.5861C136.396 71.6159 136.429 71.6396 136.465 71.6554C136.506 71.6733 136.554 71.6772 136.65 71.6849L137.406 71.7455C137.733 71.7716 137.896 71.7847 137.966 71.8554C138.028 71.9167 138.056 72.0036 138.042 72.0892C138.027 72.1878 137.903 72.2943 137.654 72.5072L137.078 73.0007C137.005 73.0633 136.968 73.0946 136.945 73.1333C136.925 73.1676 136.913 73.2059 136.909 73.2455C136.905 73.2903 136.916 73.3371 136.938 73.4307L137.114 74.1685C137.19 74.4869 137.228 74.6461 137.183 74.735C137.143 74.8122 137.069 74.8659 136.984 74.8796C136.885 74.8952 136.745 74.8099 136.466 74.6393L135.819 74.244C135.737 74.1938 135.696 74.1687 135.652 74.1589C135.613 74.1503 135.573 74.1503 135.534 74.1589C135.49 74.1687 135.449 74.1938 135.367 74.244L134.719 74.6393C134.44 74.8099 134.3 74.8952 134.202 74.8796C134.116 74.8659 134.042 74.8122 134.003 74.735C133.957 74.6461 133.995 74.4869 134.071 74.1685L134.247 73.4307C134.27 73.3371 134.281 73.2903 134.277 73.2455C134.273 73.2059 134.26 73.1676 134.24 73.1333C134.217 73.0946 134.181 73.0633 134.108 73.0007L133.532 72.5072C133.283 72.2943 133.159 72.1878 133.143 72.0892C133.13 72.0036 133.158 71.9167 133.219 71.8554C133.29 71.7847 133.453 71.7716 133.779 71.7455L134.535 71.6849C134.631 71.6772 134.679 71.6733 134.72 71.6554C134.757 71.6396 134.789 71.6159 134.816 71.5861C134.846 71.5524 134.864 71.5079 134.901 71.4191L135.192 70.7187Z" fill="#E1E8F3"/>
<rect x="99.749" y="50.0801" width="88" height="48" rx="6" fill="url(#paint11_radial_4142_88975)" style="mix-blend-mode:multiply"/>
</g>
<path d="M106.111 60.0947C101.854 63.8511 99.168 69.3483 99.168 75.4727H92.168C92.168 66.9754 96.0219 59.3784 102.077 54.334L106.111 60.0947ZM119.668 54.9727C117.354 54.9727 115.13 55.3558 113.055 56.0625L108.917 50.1533C112.219 48.7493 115.853 47.9727 119.668 47.9727V54.9727Z" fill="url(#paint12_radial_4142_88975)"/>
<rect x="51.668" y="139.246" width="136" height="12" rx="4" fill="url(#paint13_linear_4142_88975)"/>
<path d="M57 145.246H183V203.246C183 210.978 176.732 217.246 169 217.246H71C63.268 217.246 57 210.978 57 203.246V145.246Z" fill="url(#paint14_linear_4142_88975)"/>
<path d="M125.668 145.246H173.668V199.246C173.668 202.56 170.982 205.246 167.668 205.246H131.668C128.354 205.246 125.668 202.56 125.668 199.246V145.246Z" fill="#51F5B6"/>
<g style="mix-blend-mode:multiply">
<path d="M144.183 167.679C144.183 169.772 142.473 171.468 140.363 171.468C138.253 171.468 136.543 169.772 136.543 167.679C136.543 165.587 138.253 163.891 140.363 163.891C142.473 163.891 144.183 165.587 144.183 167.679Z" fill="#7D91AF"/>
<path d="M162.543 167.679C162.543 169.772 160.832 171.468 158.722 171.468C156.612 171.468 154.902 169.772 154.902 167.679C154.902 165.587 156.612 163.891 158.722 163.891C160.832 163.891 162.543 165.587 162.543 167.679Z" fill="#7D91AF"/>
<path d="M158.209 176.07C159.166 176.07 159.942 176.839 159.942 177.788C159.942 179.115 159.674 180.428 159.151 181.654C158.629 182.88 157.862 183.993 156.896 184.932C155.931 185.87 154.784 186.614 153.523 187.121C152.261 187.629 150.908 187.891 149.543 187.891C148.177 187.891 146.824 187.629 145.562 187.121C144.301 186.614 143.154 185.87 142.189 184.932C141.223 183.993 140.456 182.88 139.934 181.654C139.411 180.428 139.143 179.115 139.143 177.788C139.143 176.839 139.919 176.07 140.876 176.07C141.833 176.07 142.609 176.839 142.609 177.788C142.609 178.653 142.784 179.512 143.127 180.315C143.469 181.118 143.974 181.854 144.614 182.476C145.255 183.098 146.02 183.595 146.866 183.936C147.713 184.276 148.622 184.453 149.543 184.453C150.463 184.453 151.372 184.276 152.219 183.936C153.065 183.595 153.83 183.098 154.471 182.476C155.111 181.854 155.616 181.118 155.958 180.315C156.301 179.512 156.476 178.653 156.476 177.788C156.476 176.839 157.252 176.07 158.209 176.07Z" fill="#7D91AF"/>
</g>
<path d="M65.668 145.246H89.668V175.246C89.668 181.874 84.2954 187.246 77.668 187.246C71.0406 187.246 65.668 181.874 65.668 175.246V145.246Z" fill="#FFD6D4"/>
<g style="mix-blend-mode:overlay">
<path d="M74.668 168.015C74.668 169.092 73.7725 169.965 72.668 169.965C71.5634 169.965 70.668 169.092 70.668 168.015C70.668 166.939 71.5634 166.066 72.668 166.066C73.7725 166.066 74.668 166.939 74.668 168.015Z" fill="#272E3A"/>
<path d="M84.668 168.015C84.668 169.092 83.7725 169.965 82.668 169.965C81.5634 169.965 80.668 169.092 80.668 168.015C80.668 166.939 81.5634 166.066 82.668 166.066C83.7725 166.066 84.668 166.939 84.668 168.015Z" fill="#272E3A"/>
<path d="M82.0898 178.066C82.642 178.066 83.0898 177.63 83.0898 177.092C83.0898 176.412 82.9492 175.739 82.6768 175.111C82.4043 174.484 82.0052 173.913 81.502 173.433C80.9986 172.952 80.4008 172.571 79.7432 172.311C79.0854 172.05 78.3799 171.917 77.668 171.917C76.956 171.917 76.2506 172.05 75.5928 172.311C74.9351 172.571 74.3374 172.952 73.834 173.433C73.3307 173.913 72.9316 174.484 72.6592 175.111C72.3868 175.739 72.2461 176.412 72.2461 177.092C72.2461 177.63 72.6938 178.066 73.2461 178.066C73.7984 178.066 74.2461 177.63 74.2461 177.092C74.2461 176.674 74.3325 176.259 74.501 175.871C74.6696 175.482 74.9177 175.126 75.2334 174.825C75.5492 174.523 75.9268 174.282 76.3447 174.117C76.7629 173.951 77.213 173.866 77.668 173.866C78.1229 173.866 78.573 173.951 78.9912 174.117C79.4091 174.282 79.7868 174.523 80.1025 174.825C80.4182 175.126 80.6664 175.482 80.835 175.871C81.0034 176.259 81.0898 176.674 81.0898 177.092C81.0898 177.63 81.5376 178.066 82.0898 178.066Z" fill="#272E3A"/>
</g>
<path d="M95.668 145.246H119.668V175.246C119.668 181.874 114.295 187.246 107.668 187.246C101.041 187.246 95.668 181.874 95.668 175.246V145.246Z" fill="#F0F5FD"/>
<g style="mix-blend-mode:color-burn">
<path d="M104.668 168.066C104.668 169.171 103.773 170.066 102.668 170.066C101.564 170.066 100.668 169.171 100.668 168.066C100.668 166.962 101.564 166.066 102.668 166.066C103.773 166.066 104.668 166.962 104.668 168.066Z" fill="#272E3A"/>
<path d="M114.668 168.066C114.668 169.171 113.773 170.066 112.668 170.066C111.564 170.066 110.668 169.171 110.668 168.066C110.668 166.962 111.564 166.066 112.668 166.066C113.773 166.066 114.668 166.962 114.668 168.066Z" fill="#272E3A"/>
<path d="M101.668 175.066C101.668 174.514 102.116 174.066 102.668 174.066H112.668C113.22 174.066 113.668 174.514 113.668 175.066C113.668 175.619 113.22 176.066 112.668 176.066H102.668C102.116 176.066 101.668 175.619 101.668 175.066Z" fill="#272E3A"/>
</g>
<g style="mix-blend-mode:multiply">
<path d="M57 145.246H183V151.996H57V145.246Z" fill="url(#paint15_linear_4142_88975)"/>
</g>
</g>
<defs>
<linearGradient id="paint0_linear_4142_88975" x1="112.016" y1="94.8246" x2="198.363" y2="-9.65487" gradientUnits="userSpaceOnUse">
<stop stop-color="#00BDFF"/>
<stop offset="1" stop-color="#35FAFF"/>
</linearGradient>
<linearGradient id="paint1_linear_4142_88975" x1="182.661" y1="25.9512" x2="153.176" y2="161.202" gradientUnits="userSpaceOnUse">
<stop stop-color="#007CCC"/>
<stop offset="1" stop-color="#00CDFF"/>
</linearGradient>
<linearGradient id="paint2_linear_4142_88975" x1="9.7646" y1="240" x2="119.717" y2="173.661" gradientUnits="userSpaceOnUse">
<stop stop-color="#35FAFF"/>
<stop offset="1" stop-color="#00BDFF"/>
</linearGradient>
<radialGradient id="paint3_radial_4142_88975" cx="0" cy="0" r="1" gradientTransform="matrix(-159.379 -157.672 158.235 -180.074 211.269 180.623)" gradientUnits="userSpaceOnUse">
<stop stop-color="#7D91AF"/>
<stop offset="1" stop-color="#E1E8F3"/>
</radialGradient>
<radialGradient id="paint4_radial_4142_88975" cx="0" cy="0" r="1" gradientTransform="matrix(76.7666 67.1547 -116.602 150.064 46.47 21.8434)" gradientUnits="userSpaceOnUse">
<stop stop-color="white"/>
<stop offset="1" stop-color="#E1E8F3" stop-opacity="0"/>
</radialGradient>
<linearGradient id="paint5_linear_4142_88975" x1="119.668" y1="122.007" x2="119.668" y2="135.787" gradientUnits="userSpaceOnUse">
<stop stop-color="#ACB8CC" stop-opacity="0"/>
<stop offset="0.589041" stop-color="white"/>
<stop offset="1" stop-color="#ACB8CC" stop-opacity="0"/>
</linearGradient>
<radialGradient id="paint6_radial_4142_88975" cx="0" cy="0" r="1" gradientTransform="matrix(20.6406 15.1758 -22.7637 19.815 52.8066 24.9219)" gradientUnits="userSpaceOnUse">
<stop stop-color="#3B4556"/>
<stop offset="1" stop-color="#ACB8CC"/>
</radialGradient>
<linearGradient id="paint7_linear_4142_88975" x1="85.8801" y1="44.0785" x2="156.665" y2="105.891" gradientUnits="userSpaceOnUse">
<stop offset="0.119558" stop-color="white"/>
<stop offset="1" stop-color="#ACB8CC"/>
</linearGradient>
<radialGradient id="paint8_radial_4142_88975" cx="0" cy="0" r="1" gradientUnits="userSpaceOnUse" gradientTransform="translate(91.0186 44.5552) rotate(45.6257) scale(85.601 111.237)">
<stop stop-color="#3478FF"/>
<stop offset="1" stop-color="#1237A1"/>
</radialGradient>
<radialGradient id="paint9_radial_4142_88975" cx="0" cy="0" r="1" gradientUnits="userSpaceOnUse" gradientTransform="translate(91.0182 44.5552) rotate(50.9315) scale(49.2553 64.0063)">
<stop stop-color="#80B3FF"/>
<stop offset="1" stop-color="#3478FF"/>
</radialGradient>
<linearGradient id="paint10_linear_4142_88975" x1="189.852" y1="98.0801" x2="89.0988" y2="86.9804" gradientUnits="userSpaceOnUse">
<stop stop-color="#E1E8F3"/>
<stop offset="0.264423" stop-color="white"/>
<stop offset="0.610471" stop-color="white"/>
<stop offset="1" stop-color="#E1E8F3"/>
</linearGradient>
<radialGradient id="paint11_radial_4142_88975" cx="0" cy="0" r="1" gradientTransform="matrix(77.1539 3.34105 -8.13763 136.021 98.3978 70.739)" gradientUnits="userSpaceOnUse">
<stop offset="0.2641" stop-color="white" stop-opacity="0"/>
<stop offset="1" stop-color="#1237A1"/>
</radialGradient>
<radialGradient id="paint12_radial_4142_88975" cx="0" cy="0" r="1" gradientUnits="userSpaceOnUse" gradientTransform="translate(95.8517 52.7652) rotate(50.6673) scale(25.4209 38.0223)">
<stop stop-color="white"/>
<stop offset="1" stop-color="white" stop-opacity="0"/>
</radialGradient>
<linearGradient id="paint13_linear_4142_88975" x1="183.206" y1="147.712" x2="47.3976" y2="132.191" gradientUnits="userSpaceOnUse">
<stop stop-color="#3B4556"/>
<stop offset="1" stop-color="#272E3A"/>
</linearGradient>
<linearGradient id="paint14_linear_4142_88975" x1="63.932" y1="145.246" x2="184.096" y2="219.052" gradientUnits="userSpaceOnUse">
<stop stop-color="white"/>
<stop offset="1" stop-color="#F0F5FD"/>
</linearGradient>
<linearGradient id="paint15_linear_4142_88975" x1="63.932" y1="145.246" x2="67.7331" y2="173.452" gradientUnits="userSpaceOnUse">
<stop stop-color="#7D91AF"/>
<stop offset="1" stop-color="#ACB8CC" stop-opacity="0"/>
</linearGradient>
<clipPath id="clip0_4142_88975">
<rect width="240" height="240" fill="white"/>
</clipPath>
</defs>
</svg>
