<svg width="240" height="240" viewBox="0 0 240 240" fill="none" xmlns="http://www.w3.org/2000/svg">
<g clip-path="url(#clip0_4142_88372)">
<path d="M67.859 131.996L240 132L231.492 37.3026C229.596 16.1972 211.449 0.00376892 189.692 0.00323486L56 0L67.859 131.996Z" fill="#007DE3"/>
<path d="M9.92171 223.481C10.7249 232.828 18.4116 240 27.6267 240L96 239.998L84.6589 108L0 108.003L9.92171 223.481Z" fill="url(#paint0_linear_4142_88372)"/>
<path d="M12 54C12 50.6863 14.6863 48 18 48H222C225.314 48 228 50.6863 228 54V186C228 189.314 225.314 192 222 192H18C14.6863 192 12 189.314 12 186V54Z" fill="url(#paint1_linear_4142_88372)"/>
<path d="M12 54C12 50.6863 14.6863 48 18 48H222C225.314 48 228 50.6863 228 54V186C228 189.314 225.314 192 222 192H18C14.6863 192 12 189.314 12 186V54Z" fill="url(#paint2_radial_4142_88372)" fill-opacity="0.3"/>
<rect x="31.2822" y="63.4531" width="14" height="14" rx="7" fill="#7D91AF"/>
<rect x="56.6182" y="137.004" width="14" height="14" rx="7" fill="#0062FF"/>
<rect x="53.2822" y="67.4531" width="24" height="6" rx="3" fill="#7D91AF"/>
<rect x="85.2822" y="67.4531" width="48" height="6" rx="3" fill="#7D91AF"/>
<rect x="78.6182" y="141.004" width="42" height="6" rx="3" fill="#0062FF"/>
<rect x="128.618" y="141.004" width="18" height="6" rx="3" fill="#0062FF"/>
<g style="mix-blend-mode:multiply">
<rect x="31.418" y="104" width="32" height="4" rx="2" fill="#E1E8F3"/>
</g>
<g style="mix-blend-mode:multiply">
<rect x="159.418" y="116" width="32" height="4" rx="2" fill="#E1E8F3"/>
</g>
<g style="mix-blend-mode:multiply">
<rect x="87.418" y="116" width="64" height="4" rx="2" fill="#E1E8F3"/>
</g>
<g style="mix-blend-mode:multiply">
<rect x="71.418" y="104" width="48" height="4" rx="2" fill="#E1E8F3"/>
</g>
<g style="mix-blend-mode:multiply">
<rect x="127.418" y="104" width="56" height="4" rx="2" fill="#E1E8F3"/>
</g>
<g style="mix-blend-mode:multiply">
<rect x="31.418" y="116" width="48" height="4" rx="2" fill="#E1E8F3"/>
</g>
<path d="M112.754 171.555C113.858 171.555 114.754 172.45 114.754 173.555C114.754 174.659 113.858 175.555 112.754 175.555H76.7539C75.6493 175.555 74.7539 174.659 74.7539 173.555C74.7539 172.45 75.6493 171.555 76.7539 171.555H112.754ZM184.754 171.555C185.858 171.555 186.754 172.45 186.754 173.555C186.754 174.659 185.858 175.555 184.754 175.555H124.754C123.649 175.555 122.754 174.659 122.754 173.555C122.754 172.45 123.649 171.555 124.754 171.555H184.754ZM104.754 159.555C105.858 159.555 106.754 160.45 106.754 161.555C106.754 162.659 105.858 163.555 104.754 163.555H76.7539C75.6493 163.555 74.7539 162.659 74.7539 161.555C74.7539 160.45 75.6493 159.555 76.7539 159.555H104.754ZM160.754 159.555C161.858 159.555 162.754 160.45 162.754 161.555C162.754 162.659 161.858 163.555 160.754 163.555H116.754C115.649 163.555 114.754 162.659 114.754 161.555C114.754 160.45 115.649 159.555 116.754 159.555H160.754ZM200.754 159.555C201.858 159.555 202.754 160.45 202.754 161.555C202.754 162.659 201.858 163.555 200.754 163.555H172.754C171.649 163.555 170.754 162.659 170.754 161.555C170.754 160.45 171.649 159.555 172.754 159.555H200.754Z" fill="url(#paint3_linear_4142_88372)"/>
<path d="M51.0177 158.599C52.0023 164.183 57.3273 167.911 62.9111 166.927L63.166 168.373L63.1651 168.373C57.5828 169.357 53.8549 174.679 54.8364 180.261L53.3928 180.516C52.4046 174.936 47.0821 171.212 41.5008 172.196L41.2457 170.749L41.2468 170.75C46.8308 169.765 50.5593 164.441 49.5747 158.857C49.5743 158.854 49.5739 158.852 49.5735 158.85L51.0171 158.595C51.0173 158.597 51.0175 158.598 51.0177 158.599Z" fill="white"/>
<path d="M36.8206 85.8365C36.9914 85.4259 37.5731 85.4259 37.7439 85.8365L38.752 88.2602C38.824 88.4334 38.9868 88.5516 39.1737 88.5666L41.7903 88.7764C42.2336 88.8119 42.4134 89.3652 42.0756 89.6545L40.082 91.3622C39.9396 91.4842 39.8774 91.6756 39.9209 91.858L40.53 94.4113C40.6332 94.8439 40.1626 95.1859 39.783 94.954L37.5429 93.5858C37.3828 93.488 37.1816 93.488 37.0216 93.5858L34.7814 94.954C34.4019 95.1859 33.9313 94.8439 34.0344 94.4113L34.6435 91.858C34.687 91.6756 34.6248 91.4842 34.4824 91.3622L32.4889 89.6545C32.1511 89.3652 32.3309 88.8119 32.7742 88.7764L35.3908 88.5666C35.5777 88.5516 35.7405 88.4334 35.8125 88.2602L36.8206 85.8365Z" fill="#0062FF"/>
<path d="M50.8206 85.8365C50.9914 85.4259 51.5731 85.4259 51.7439 85.8365L52.752 88.2602C52.824 88.4334 52.9868 88.5516 53.1737 88.5666L55.7903 88.7764C56.2336 88.8119 56.4134 89.3652 56.0756 89.6545L54.082 91.3622C53.9396 91.4842 53.8774 91.6756 53.9209 91.858L54.53 94.4113C54.6332 94.8439 54.1626 95.1859 53.783 94.954L51.5429 93.5858C51.3828 93.488 51.1816 93.488 51.0216 93.5858L48.7814 94.954C48.4019 95.1859 47.9313 94.8439 48.0344 94.4113L48.6435 91.858C48.687 91.6756 48.6248 91.4842 48.4824 91.3622L46.4889 89.6545C46.1511 89.3652 46.3309 88.8119 46.7742 88.7764L49.3908 88.5666C49.5777 88.5516 49.7405 88.4334 49.8125 88.2602L50.8206 85.8365Z" fill="#0062FF"/>
<path d="M64.8206 85.8365C64.9914 85.4259 65.5731 85.4259 65.7439 85.8365L66.752 88.2602C66.824 88.4334 66.9868 88.5516 67.1737 88.5666L69.7903 88.7764C70.2336 88.8119 70.4134 89.3652 70.0756 89.6545L68.082 91.3622C67.9396 91.4842 67.8774 91.6756 67.9209 91.858L68.53 94.4113C68.6332 94.8439 68.1626 95.1859 67.783 94.954L65.5429 93.5858C65.3828 93.488 65.1816 93.488 65.0216 93.5858L62.7814 94.954C62.4019 95.1859 61.9313 94.8439 62.0344 94.4113L62.6435 91.858C62.687 91.6756 62.6248 91.4842 62.4824 91.3622L60.4889 89.6545C60.1511 89.3652 60.3309 88.8119 60.7742 88.7764L63.3908 88.5666C63.5777 88.5516 63.7405 88.4334 63.8125 88.2602L64.8206 85.8365Z" fill="#0062FF"/>
<path d="M78.8206 85.8365C78.9914 85.4259 79.5731 85.4259 79.7439 85.8365L80.752 88.2602C80.824 88.4334 80.9868 88.5516 81.1737 88.5666L83.7903 88.7764C84.2336 88.8119 84.4134 89.3652 84.0756 89.6545L82.082 91.3622C81.9396 91.4842 81.8774 91.6756 81.9209 91.858L82.53 94.4113C82.6332 94.8439 82.1626 95.1859 81.783 94.954L79.5429 93.5858C79.3828 93.488 79.1816 93.488 79.0216 93.5858L76.7814 94.954C76.4019 95.1859 75.9313 94.8439 76.0344 94.4113L76.6435 91.858C76.687 91.6756 76.6248 91.4842 76.4824 91.3622L74.4889 89.6545C74.1511 89.3652 74.3309 88.8119 74.7742 88.7764L77.3908 88.5666C77.5777 88.5516 77.7405 88.4334 77.8125 88.2602L78.8206 85.8365Z" fill="#E1E8F3"/>
<path d="M92.8206 85.8365C92.9914 85.4259 93.5731 85.4259 93.7439 85.8365L94.752 88.2602C94.824 88.4334 94.9868 88.5516 95.1737 88.5666L97.7903 88.7764C98.2336 88.8119 98.4134 89.3652 98.0756 89.6545L96.082 91.3622C95.9396 91.4842 95.8774 91.6756 95.9209 91.858L96.53 94.4113C96.6332 94.8439 96.1626 95.1859 95.783 94.954L93.5429 93.5858C93.3828 93.488 93.1816 93.488 93.0216 93.5858L90.7814 94.954C90.4019 95.1859 89.9313 94.8439 90.0344 94.4113L90.6435 91.858C90.687 91.6756 90.6248 91.4842 90.4824 91.3622L88.4889 89.6545C88.1511 89.3652 88.3309 88.8119 88.7742 88.7764L91.3908 88.5666C91.5777 88.5516 91.7405 88.4334 91.8125 88.2602L92.8206 85.8365Z" fill="#E1E8F3"/>
</g>
<defs>
<linearGradient id="paint0_linear_4142_88372" x1="66.0842" y1="133.951" x2="15.6843" y2="254.571" gradientUnits="userSpaceOnUse">
<stop stop-color="#00D2FF"/>
<stop offset="1" stop-color="#00FFFF"/>
</linearGradient>
<linearGradient id="paint1_linear_4142_88372" x1="195.37" y1="304.896" x2="-110.716" y2="120.303" gradientUnits="userSpaceOnUse">
<stop stop-color="#E1E8F3"/>
<stop offset="0.264423" stop-color="white"/>
<stop offset="0.724224" stop-color="white"/>
<stop offset="1" stop-color="#E1E8F3"/>
</linearGradient>
<radialGradient id="paint2_radial_4142_88372" cx="0" cy="0" r="1" gradientUnits="userSpaceOnUse" gradientTransform="translate(52.2353 170.835) rotate(-32.4335) scale(41.8204 40.6342)">
<stop stop-color="#C871F3"/>
<stop offset="1" stop-color="white" stop-opacity="0"/>
</radialGradient>
<linearGradient id="paint3_linear_4142_88372" x1="217.305" y1="183.973" x2="185.27" y2="105.37" gradientUnits="userSpaceOnUse">
<stop stop-color="#3478FF"/>
<stop offset="0.259615" stop-color="#4BDFF9"/>
<stop offset="1" stop-color="#F548F0"/>
</linearGradient>
<clipPath id="clip0_4142_88372">
<rect width="240" height="240" fill="white"/>
</clipPath>
</defs>
</svg>
